<?xml version="1.0" encoding="UTF-8" standalone="no"?>
<!DOCTYPE svg PUBLIC "-//W3C//DTD SVG 1.1//EN"
 "http://www.w3.org/Graphics/SVG/1.1/DTD/svg11.dtd">
<!-- Generated by graphviz version 2.43.0 (0)
 -->
<!-- Title: pipeline Pages: 1 -->
<svg width="800pt" height="377pt"
 viewBox="0.00 0.00 800.00 377.00" xmlns="http://www.w3.org/2000/svg" xmlns:xlink="http://www.w3.org/1999/xlink">
<g id="graph0" class="graph" transform="scale(1 1) rotate(0) translate(4 373)">
<title>pipeline</title>
<polygon fill="white" stroke="transparent" points="-4,4 -4,-373 796,-373 796,4 -4,4"/>
<text text-anchor="middle" x="396" y="-357" font-family="sans" font-size="10.00">&lt;GstPipeline&gt;</text>
<text text-anchor="middle" x="396" y="-346" font-family="sans" font-size="10.00">pipeline0</text>
<text text-anchor="middle" x="396" y="-335" font-family="sans" font-size="10.00">[=] &#45;&gt; [0]</text>
<g id="clust1" class="cluster">
<title>cluster_decklinkaudiosink0_0x561876585410</title>
<path fill="#aaaaff" stroke="black" d="M598,-66C598,-66 780,-66 780,-66 786,-66 792,-72 792,-78 792,-78 792,-168 792,-168 792,-174 786,-180 780,-180 780,-180 598,-180 598,-180 592,-180 586,-174 586,-168 586,-168 586,-78 586,-78 586,-72 592,-66 598,-66"/>
<text text-anchor="middle" x="689" y="-169.6" font-family="Bitstream Vera Sans" font-size="8.00">GstDecklinkAudioSink</text>
<text text-anchor="middle" x="689" y="-160.6" font-family="Bitstream Vera Sans" font-size="8.00">decklinkaudiosink0</text>
<text text-anchor="middle" x="689" y="-151.6" font-family="Bitstream Vera Sans" font-size="8.00">[&gt;] &#45;&gt; [=]</text>
<text text-anchor="middle" x="689" y="-142.6" font-family="Bitstream Vera Sans" font-size="8.00">max&#45;lateness=20000000</text>
<text text-anchor="middle" x="689" y="-133.6" font-family="Bitstream Vera Sans" font-size="8.00">last&#45;sample=((GstSample*) 0x5618765e29c0)</text>
<text text-anchor="middle" x="689" y="-124.6" font-family="Bitstream Vera Sans" font-size="8.00">hw&#45;serial&#45;number=&quot;&quot;</text>
</g>
<g id="clust2" class="cluster">
<title>cluster_decklinkaudiosink0_0x561876585410_sink</title>
</g>
<g id="clust3" class="cluster">
<title>cluster_decklinkaudiosrc0_0x561876583aa0</title>
<path fill="#ffaaaa" stroke="black" d="M140.5,-66C140.5,-66 219.5,-66 219.5,-66 225.5,-66 231.5,-72 231.5,-78 231.5,-78 231.5,-159 231.5,-159 231.5,-165 225.5,-171 219.5,-171 219.5,-171 140.5,-171 140.5,-171 134.5,-171 128.5,-165 128.5,-159 128.5,-159 128.5,-78 128.5,-78 128.5,-72 134.5,-66 140.5,-66"/>
<text text-anchor="middle" x="180" y="-160.6" font-family="Bitstream Vera Sans" font-size="8.00">GstDecklinkAudioSrc</text>
<text text-anchor="middle" x="180" y="-151.6" font-family="Bitstream Vera Sans" font-size="8.00">decklinkaudiosrc0</text>
<text text-anchor="middle" x="180" y="-142.6" font-family="Bitstream Vera Sans" font-size="8.00">[=]</text>
<text text-anchor="middle" x="180" y="-133.6" font-family="Bitstream Vera Sans" font-size="8.00">device&#45;number=1</text>
<text text-anchor="middle" x="180" y="-124.6" font-family="Bitstream Vera Sans" font-size="8.00">hw&#45;serial&#45;number=&quot;&quot;</text>
</g>
<g id="clust4" class="cluster">
<title>cluster_decklinkaudiosrc0_0x561876583aa0_src</title>
</g>
<g id="clust5" class="cluster">
<title>cluster_decklinkvideosink0_0x561876582190</title>
<path fill="#aaaaff" stroke="black" d="M598,-188C598,-188 780,-188 780,-188 786,-188 792,-194 792,-200 792,-200 792,-308 792,-308 792,-314 786,-320 780,-320 780,-320 598,-320 598,-320 592,-320 586,-314 586,-308 586,-308 586,-200 586,-200 586,-194 592,-188 598,-188"/>
<text text-anchor="middle" x="689" y="-309.6" font-family="Bitstream Vera Sans" font-size="8.00">GstDecklinkVideoSink</text>
<text text-anchor="middle" x="689" y="-300.6" font-family="Bitstream Vera Sans" font-size="8.00">decklinkvideosink0</text>
<text text-anchor="middle" x="689" y="-291.6" font-family="Bitstream Vera Sans" font-size="8.00">[&gt;] &#45;&gt; [=]</text>
<text text-anchor="middle" x="689" y="-282.6" font-family="Bitstream Vera Sans" font-size="8.00">max&#45;lateness=20000000</text>
<text text-anchor="middle" x="689" y="-273.6" font-family="Bitstream Vera Sans" font-size="8.00">qos=TRUE</text>
<text text-anchor="middle" x="689" y="-264.6" font-family="Bitstream Vera Sans" font-size="8.00">last&#45;sample=((GstSample*) 0x5618765e27d0)</text>
<text text-anchor="middle" x="689" y="-255.6" font-family="Bitstream Vera Sans" font-size="8.00">mode=1080i5994</text>
<text text-anchor="middle" x="689" y="-246.6" font-family="Bitstream Vera Sans" font-size="8.00">hw&#45;serial&#45;number=&quot;&quot;</text>
</g>
<g id="clust6" class="cluster">
<title>cluster_decklinkvideosink0_0x561876582190_sink</title>
</g>
<g id="clust7" class="cluster">
<title>cluster_decklinkvideosrc0_0x5618765657a0</title>
<path fill="#ffaaaa" stroke="black" d="M140.5,-188C140.5,-188 219.5,-188 219.5,-188 225.5,-188 231.5,-194 231.5,-200 231.5,-200 231.5,-308 231.5,-308 231.5,-314 225.5,-320 219.5,-320 219.5,-320 140.5,-320 140.5,-320 134.5,-320 128.5,-314 128.5,-308 128.5,-308 128.5,-200 128.5,-200 128.5,-194 134.5,-188 140.5,-188"/>
<text text-anchor="middle" x="180" y="-309.6" font-family="Bitstream Vera Sans" font-size="8.00">GstDecklinkVideoSrc</text>
<text text-anchor="middle" x="180" y="-300.6" font-family="Bitstream Vera Sans" font-size="8.00">decklinkvideosrc0</text>
<text text-anchor="middle" x="180" y="-291.6" font-family="Bitstream Vera Sans" font-size="8.00">[=]</text>
<text text-anchor="middle" x="180" y="-282.6" font-family="Bitstream Vera Sans" font-size="8.00">mode=1080i5994</text>
<text text-anchor="middle" x="180" y="-273.6" font-family="Bitstream Vera Sans" font-size="8.00">connection=sdi</text>
<text text-anchor="middle" x="180" y="-264.6" font-family="Bitstream Vera Sans" font-size="8.00">device&#45;number=1</text>
<text text-anchor="middle" x="180" y="-255.6" font-family="Bitstream Vera Sans" font-size="8.00">signal=TRUE</text>
<text text-anchor="middle" x="180" y="-246.6" font-family="Bitstream Vera Sans" font-size="8.00">hw&#45;serial&#45;number=&quot;&quot;</text>
</g>
<g id="clust8" class="cluster">
<title>cluster_decklinkvideosrc0_0x5618765657a0_src</title>
</g>
<!-- legend -->
<g id="node1" class="node">
<title>legend</title>
<polygon fill="lightgrey" stroke="black" points="359,-58 0,-58 0,0 359,0 359,-58"/>
<text text-anchor="start" x="4" y="-46.8" font-family="sans" font-size="9.00">Legend</text>
<text text-anchor="start" x="4" y="-36.8" font-family="sans" font-size="9.00">Element&#45;States: [~] void&#45;pending, [0] null, [&#45;] ready, [=] paused, [&gt;] playing</text>
<text text-anchor="start" x="4" y="-26.8" font-family="sans" font-size="9.00">Pad&#45;Activation: [&#45;] none, [&gt;] push, [&lt;] pull</text>
<text text-anchor="start" x="4" y="-16.8" font-family="sans" font-size="9.00">Pad&#45;Flags: [b]locked, [f]lushing, [b]locking, [E]OS; upper&#45;case is set</text>
<text text-anchor="start" x="4" y="-6.8" font-family="sans" font-size="9.00">Pad&#45;Task: [T] has started task, [t] has paused task</text>
</g>
<!-- decklinkaudiosink0_0x561876585410_sink_0x5618765858b0 -->
<g id="node2" class="node">
<title>decklinkaudiosink0_0x561876585410_sink_0x5618765858b0</title>
<polygon fill="#aaaaff" stroke="black" points="716,-102 662,-102 662,-82 716,-82 716,-102"/>
<text text-anchor="middle" x="689" y="-94.8" font-family="sans" font-size="9.00">sink</text>
<text text-anchor="middle" x="689" y="-84.8" font-family="sans" font-size="9.00">[&gt;][bfb]</text>
</g>
<!-- decklinkaudiosrc0_0x561876583aa0_src_0x561876583fb0 -->
<g id="node3" class="node">
<title>decklinkaudiosrc0_0x561876583aa0_src_0x561876583fb0</title>
<polygon fill="#ffaaaa" stroke="black" points="206.5,-102 152.5,-102 152.5,-82 206.5,-82 206.5,-102"/>
<text text-anchor="middle" x="179.5" y="-94.8" font-family="sans" font-size="9.00">src</text>
<text text-anchor="middle" x="179.5" y="-84.8" font-family="sans" font-size="9.00">[&gt;][bfb][T]</text>
</g>
<!-- decklinkaudiosrc0_0x561876583aa0_src_0x561876583fb0&#45;&gt;decklinkaudiosink0_0x561876585410_sink_0x5618765858b0 -->
<g id="edge1" class="edge">
<title>decklinkaudiosrc0_0x561876583aa0_src_0x561876583fb0&#45;&gt;decklinkaudiosink0_0x561876585410_sink_0x5618765858b0</title>
<path fill="none" stroke="black" d="M206.72,-92C290.94,-92 554.76,-92 651.75,-92"/>
<polygon fill="black" stroke="black" points="651.94,-95.5 661.94,-92 651.94,-88.5 651.94,-95.5"/>
<text text-anchor="start" x="367" y="-144.8" font-family="monospace" font-size="9.00">audio/x&#45;raw</text>
<text text-anchor="start" x="367" y="-134.8" font-family="monospace" font-size="9.00"> &#160;&#160;&#160;&#160;&#160;&#160;&#160;&#160;&#160;&#160;&#160;&#160;&#160;format: S32LE</text>
<text text-anchor="start" x="367" y="-124.8" font-family="monospace" font-size="9.00"> &#160;&#160;&#160;&#160;&#160;&#160;&#160;&#160;&#160;&#160;&#160;&#160;&#160;layout: interleaved</text>
<text text-anchor="start" x="367" y="-114.8" font-family="monospace" font-size="9.00"> &#160;&#160;&#160;&#160;&#160;&#160;&#160;&#160;&#160;&#160;&#160;&#160;&#160;&#160;&#160;rate: 48000</text>
<text text-anchor="start" x="367" y="-104.8" font-family="monospace" font-size="9.00"> &#160;&#160;&#160;&#160;&#160;&#160;&#160;&#160;&#160;&#160;&#160;channels: 2</text>
<text text-anchor="start" x="367" y="-94.8" font-family="monospace" font-size="9.00"> &#160;&#160;&#160;&#160;&#160;&#160;&#160;channel&#45;mask: 0x0000000000000003</text>
</g>
<!-- decklinkvideosink0_0x561876582190_sink_0x561876582570 -->
<g id="node4" class="node">
<title>decklinkvideosink0_0x561876582190_sink_0x561876582570</title>
<polygon fill="#aaaaff" stroke="black" points="716,-224 662,-224 662,-204 716,-204 716,-224"/>
<text text-anchor="middle" x="689" y="-216.8" font-family="sans" font-size="9.00">sink</text>
<text text-anchor="middle" x="689" y="-206.8" font-family="sans" font-size="9.00">[&gt;][bfb]</text>
</g>
<!-- decklinkvideosrc0_0x5618765657a0_src_0x561876565c60 -->
<g id="node5" class="node">
<title>decklinkvideosrc0_0x5618765657a0_src_0x561876565c60</title>
<polygon fill="#ffaaaa" stroke="black" points="206.5,-224 152.5,-224 152.5,-204 206.5,-204 206.5,-224"/>
<text text-anchor="middle" x="179.5" y="-216.8" font-family="sans" font-size="9.00">src</text>
<text text-anchor="middle" x="179.5" y="-206.8" font-family="sans" font-size="9.00">[&gt;][bfb][T]</text>
</g>
<!-- decklinkvideosrc0_0x5618765657a0_src_0x561876565c60&#45;&gt;decklinkvideosink0_0x561876582190_sink_0x561876582570 -->
<g id="edge2" class="edge">
<title>decklinkvideosrc0_0x5618765657a0_src_0x561876565c60&#45;&gt;decklinkvideosink0_0x561876582190_sink_0x561876582570</title>
<path fill="none" stroke="black" d="M206.72,-214C290.94,-214 554.76,-214 651.75,-214"/>
<polygon fill="black" stroke="black" points="651.94,-217.5 661.94,-214 651.94,-210.5 651.94,-217.5"/>
<text text-anchor="start" x="375" y="-306.8" font-family="monospace" font-size="9.00">video/x&#45;raw</text>
<text text-anchor="start" x="375" y="-296.8" font-family="monospace" font-size="9.00"> &#160;&#160;&#160;&#160;&#160;&#160;&#160;&#160;&#160;&#160;&#160;&#160;&#160;&#160;width: 1920</text>
<text text-anchor="start" x="375" y="-286.8" font-family="monospace" font-size="9.00"> &#160;&#160;&#160;&#160;&#160;&#160;&#160;&#160;&#160;&#160;&#160;&#160;&#160;height: 1080</text>
<text text-anchor="start" x="375" y="-276.8" font-family="monospace" font-size="9.00"> &#160;pixel&#45;aspect&#45;ratio: 1/1</text>
<text text-anchor="start" x="375" y="-266.8" font-family="monospace" font-size="9.00"> &#160;&#160;&#160;&#160;&#160;interlace&#45;mode: interleaved</text>
<text text-anchor="start" x="375" y="-256.8" font-family="monospace" font-size="9.00"> &#160;&#160;&#160;&#160;&#160;&#160;&#160;&#160;&#160;&#160;framerate: 30000/1001</text>
<text text-anchor="start" x="375" y="-246.8" font-family="monospace" font-size="9.00"> &#160;&#160;&#160;&#160;&#160;&#160;&#160;&#160;field&#45;order: top&#45;field&#45;first</text>
<text text-anchor="start" x="375" y="-236.8" font-family="monospace" font-size="9.00"> &#160;&#160;&#160;&#160;&#160;&#160;&#160;&#160;&#160;&#160;&#160;&#160;&#160;format: UYVY</text>
<text text-anchor="start" x="375" y="-226.8" font-family="monospace" font-size="9.00"> &#160;&#160;&#160;&#160;&#160;&#160;&#160;&#160;colorimetry: bt709</text>
<text text-anchor="start" x="375" y="-216.8" font-family="monospace" font-size="9.00"> &#160;&#160;&#160;&#160;&#160;&#160;&#160;&#160;chroma&#45;site: mpeg2</text>
</g>
</g>
</svg>
