<?xml version="1.0" encoding="UTF-8" standalone="no"?>
<!DOCTYPE svg PUBLIC "-//W3C//DTD SVG 1.1//EN"
 "http://www.w3.org/Graphics/SVG/1.1/DTD/svg11.dtd">
<!-- Generated by graphviz version 2.43.0 (0)
 -->
<!-- Title: pipeline Pages: 1 -->
<svg width="2610pt" height="377pt"
 viewBox="0.00 0.00 2610.00 377.00" xmlns="http://www.w3.org/2000/svg" xmlns:xlink="http://www.w3.org/1999/xlink">
<g id="graph0" class="graph" transform="scale(1 1) rotate(0) translate(4 373)">
<title>pipeline</title>
<polygon fill="white" stroke="transparent" points="-4,4 -4,-373 2606,-373 2606,4 -4,4"/>
<text text-anchor="middle" x="1301" y="-357" font-family="sans" font-size="10.00">&lt;GstPipeline&gt;</text>
<text text-anchor="middle" x="1301" y="-346" font-family="sans" font-size="10.00">pipeline0</text>
<text text-anchor="middle" x="1301" y="-335" font-family="sans" font-size="10.00">[=] &#45;&gt; [0]</text>
<g id="clust1" class="cluster">
<title>cluster_decklinkaudiosink0_0x564d1cbce4c0</title>
<path fill="#aaaaff" stroke="black" d="M598,-66C598,-66 779,-66 779,-66 785,-66 791,-72 791,-78 791,-78 791,-168 791,-168 791,-174 785,-180 779,-180 779,-180 598,-180 598,-180 592,-180 586,-174 586,-168 586,-168 586,-78 586,-78 586,-72 592,-66 598,-66"/>
<text text-anchor="middle" x="688.5" y="-169.6" font-family="Bitstream Vera Sans" font-size="8.00">GstDecklinkAudioSink</text>
<text text-anchor="middle" x="688.5" y="-160.6" font-family="Bitstream Vera Sans" font-size="8.00">decklinkaudiosink0</text>
<text text-anchor="middle" x="688.5" y="-151.6" font-family="Bitstream Vera Sans" font-size="8.00">[&gt;] &#45;&gt; [=]</text>
<text text-anchor="middle" x="688.5" y="-142.6" font-family="Bitstream Vera Sans" font-size="8.00">max&#45;lateness=20000000</text>
<text text-anchor="middle" x="688.5" y="-133.6" font-family="Bitstream Vera Sans" font-size="8.00">last&#45;sample=((GstSample*) 0x564d1cc34020)</text>
<text text-anchor="middle" x="688.5" y="-124.6" font-family="Bitstream Vera Sans" font-size="8.00">hw&#45;serial&#45;number=&quot;&quot;</text>
</g>
<g id="clust2" class="cluster">
<title>cluster_decklinkaudiosink0_0x564d1cbce4c0_sink</title>
</g>
<g id="clust3" class="cluster">
<title>cluster_decklinkaudiosrc0_0x564d1cbcca70</title>
<path fill="#ffaaaa" stroke="black" d="M140.5,-66C140.5,-66 219.5,-66 219.5,-66 225.5,-66 231.5,-72 231.5,-78 231.5,-78 231.5,-159 231.5,-159 231.5,-165 225.5,-171 219.5,-171 219.5,-171 140.5,-171 140.5,-171 134.5,-171 128.5,-165 128.5,-159 128.5,-159 128.5,-78 128.5,-78 128.5,-72 134.5,-66 140.5,-66"/>
<text text-anchor="middle" x="180" y="-160.6" font-family="Bitstream Vera Sans" font-size="8.00">GstDecklinkAudioSrc</text>
<text text-anchor="middle" x="180" y="-151.6" font-family="Bitstream Vera Sans" font-size="8.00">decklinkaudiosrc0</text>
<text text-anchor="middle" x="180" y="-142.6" font-family="Bitstream Vera Sans" font-size="8.00">[=]</text>
<text text-anchor="middle" x="180" y="-133.6" font-family="Bitstream Vera Sans" font-size="8.00">device&#45;number=1</text>
<text text-anchor="middle" x="180" y="-124.6" font-family="Bitstream Vera Sans" font-size="8.00">hw&#45;serial&#45;number=&quot;&quot;</text>
</g>
<g id="clust4" class="cluster">
<title>cluster_decklinkaudiosrc0_0x564d1cbcca70_src</title>
</g>
<g id="clust5" class="cluster">
<title>cluster_decklinkvideosink0_0x564d1cbcb020</title>
<path fill="#aaaaff" stroke="black" d="M2409,-188C2409,-188 2590,-188 2590,-188 2596,-188 2602,-194 2602,-200 2602,-200 2602,-308 2602,-308 2602,-314 2596,-320 2590,-320 2590,-320 2409,-320 2409,-320 2403,-320 2397,-314 2397,-308 2397,-308 2397,-200 2397,-200 2397,-194 2403,-188 2409,-188"/>
<text text-anchor="middle" x="2499.5" y="-309.6" font-family="Bitstream Vera Sans" font-size="8.00">GstDecklinkVideoSink</text>
<text text-anchor="middle" x="2499.5" y="-300.6" font-family="Bitstream Vera Sans" font-size="8.00">decklinkvideosink0</text>
<text text-anchor="middle" x="2499.5" y="-291.6" font-family="Bitstream Vera Sans" font-size="8.00">[&gt;] &#45;&gt; [=]</text>
<text text-anchor="middle" x="2499.5" y="-282.6" font-family="Bitstream Vera Sans" font-size="8.00">max&#45;lateness=20000000</text>
<text text-anchor="middle" x="2499.5" y="-273.6" font-family="Bitstream Vera Sans" font-size="8.00">qos=TRUE</text>
<text text-anchor="middle" x="2499.5" y="-264.6" font-family="Bitstream Vera Sans" font-size="8.00">last&#45;sample=((GstSample*) 0x564d1cc45830)</text>
<text text-anchor="middle" x="2499.5" y="-255.6" font-family="Bitstream Vera Sans" font-size="8.00">mode=1080i5994</text>
<text text-anchor="middle" x="2499.5" y="-246.6" font-family="Bitstream Vera Sans" font-size="8.00">hw&#45;serial&#45;number=&quot;&quot;</text>
</g>
<g id="clust6" class="cluster">
<title>cluster_decklinkvideosink0_0x564d1cbcb020_sink</title>
</g>
<g id="clust7" class="cluster">
<title>cluster_videoconvert1_0x564d1cbae9e0</title>
<path fill="#aaffaa" stroke="black" d="M2025,-188C2025,-188 2174,-188 2174,-188 2180,-188 2186,-194 2186,-200 2186,-200 2186,-272 2186,-272 2186,-278 2180,-284 2174,-284 2174,-284 2025,-284 2025,-284 2019,-284 2013,-278 2013,-272 2013,-272 2013,-200 2013,-200 2013,-194 2019,-188 2025,-188"/>
<text text-anchor="middle" x="2099.5" y="-273.6" font-family="Bitstream Vera Sans" font-size="8.00">GstVideoConvert</text>
<text text-anchor="middle" x="2099.5" y="-264.6" font-family="Bitstream Vera Sans" font-size="8.00">videoconvert1</text>
<text text-anchor="middle" x="2099.5" y="-255.6" font-family="Bitstream Vera Sans" font-size="8.00">[=]</text>
<text text-anchor="middle" x="2099.5" y="-246.6" font-family="Bitstream Vera Sans" font-size="8.00">qos=TRUE</text>
</g>
<g id="clust8" class="cluster">
<title>cluster_videoconvert1_0x564d1cbae9e0_sink</title>
</g>
<g id="clust9" class="cluster">
<title>cluster_videoconvert1_0x564d1cbae9e0_src</title>
</g>
<g id="clust10" class="cluster">
<title>cluster_capsfilter0_0x564d1cbadde0</title>
<path fill="#aaffaa" stroke="black" d="M1493,-188C1493,-188 1790,-188 1790,-188 1796,-188 1802,-194 1802,-200 1802,-200 1802,-272 1802,-272 1802,-278 1796,-284 1790,-284 1790,-284 1493,-284 1493,-284 1487,-284 1481,-278 1481,-272 1481,-272 1481,-200 1481,-200 1481,-194 1487,-188 1493,-188"/>
<text text-anchor="middle" x="1641.5" y="-273.6" font-family="Bitstream Vera Sans" font-size="8.00">GstCapsFilter</text>
<text text-anchor="middle" x="1641.5" y="-264.6" font-family="Bitstream Vera Sans" font-size="8.00">capsfilter0</text>
<text text-anchor="middle" x="1641.5" y="-255.6" font-family="Bitstream Vera Sans" font-size="8.00">[=]</text>
<text text-anchor="middle" x="1641.5" y="-246.6" font-family="Bitstream Vera Sans" font-size="8.00">caps=video/x&#45;raw, format=(string)BGR, width=(int)1920, height=(int)1080</text>
</g>
<g id="clust11" class="cluster">
<title>cluster_capsfilter0_0x564d1cbadde0_sink</title>
</g>
<g id="clust12" class="cluster">
<title>cluster_capsfilter0_0x564d1cbadde0_src</title>
</g>
<g id="clust13" class="cluster">
<title>cluster_videoconvert0_0x564d1cbac5f0</title>
<path fill="#aaffaa" stroke="black" d="M1109,-188C1109,-188 1258,-188 1258,-188 1264,-188 1270,-194 1270,-200 1270,-200 1270,-272 1270,-272 1270,-278 1264,-284 1258,-284 1258,-284 1109,-284 1109,-284 1103,-284 1097,-278 1097,-272 1097,-272 1097,-200 1097,-200 1097,-194 1103,-188 1109,-188"/>
<text text-anchor="middle" x="1183.5" y="-273.6" font-family="Bitstream Vera Sans" font-size="8.00">GstVideoConvert</text>
<text text-anchor="middle" x="1183.5" y="-264.6" font-family="Bitstream Vera Sans" font-size="8.00">videoconvert0</text>
<text text-anchor="middle" x="1183.5" y="-255.6" font-family="Bitstream Vera Sans" font-size="8.00">[=]</text>
<text text-anchor="middle" x="1183.5" y="-246.6" font-family="Bitstream Vera Sans" font-size="8.00">qos=TRUE</text>
</g>
<g id="clust14" class="cluster">
<title>cluster_videoconvert0_0x564d1cbac5f0_sink</title>
</g>
<g id="clust15" class="cluster">
<title>cluster_videoconvert0_0x564d1cbac5f0_src</title>
</g>
<g id="clust16" class="cluster">
<title>cluster_queue0_0x564d1c974160</title>
<path fill="#aaffaa" stroke="black" d="M657,-188C657,-188 874,-188 874,-188 880,-188 886,-194 886,-200 886,-200 886,-290 886,-290 886,-296 880,-302 874,-302 874,-302 657,-302 657,-302 651,-302 645,-296 645,-290 645,-290 645,-200 645,-200 645,-194 651,-188 657,-188"/>
<text text-anchor="middle" x="765.5" y="-291.6" font-family="Bitstream Vera Sans" font-size="8.00">GstQueue</text>
<text text-anchor="middle" x="765.5" y="-282.6" font-family="Bitstream Vera Sans" font-size="8.00">queue0</text>
<text text-anchor="middle" x="765.5" y="-273.6" font-family="Bitstream Vera Sans" font-size="8.00">[=]</text>
<text text-anchor="middle" x="765.5" y="-264.6" font-family="Bitstream Vera Sans" font-size="8.00">current&#45;level&#45;buffers=1</text>
<text text-anchor="middle" x="765.5" y="-255.6" font-family="Bitstream Vera Sans" font-size="8.00">current&#45;level&#45;bytes=4147200</text>
<text text-anchor="middle" x="765.5" y="-246.6" font-family="Bitstream Vera Sans" font-size="8.00">current&#45;level&#45;time=33366822</text>
</g>
<g id="clust17" class="cluster">
<title>cluster_queue0_0x564d1c974160_sink</title>
</g>
<g id="clust18" class="cluster">
<title>cluster_queue0_0x564d1c974160_src</title>
</g>
<g id="clust19" class="cluster">
<title>cluster_decklinkvideosrc0_0x564d1cb98850</title>
<path fill="#ffaaaa" stroke="black" d="M140.5,-188C140.5,-188 219.5,-188 219.5,-188 225.5,-188 231.5,-194 231.5,-200 231.5,-200 231.5,-308 231.5,-308 231.5,-314 225.5,-320 219.5,-320 219.5,-320 140.5,-320 140.5,-320 134.5,-320 128.5,-314 128.5,-308 128.5,-308 128.5,-200 128.5,-200 128.5,-194 134.5,-188 140.5,-188"/>
<text text-anchor="middle" x="180" y="-309.6" font-family="Bitstream Vera Sans" font-size="8.00">GstDecklinkVideoSrc</text>
<text text-anchor="middle" x="180" y="-300.6" font-family="Bitstream Vera Sans" font-size="8.00">decklinkvideosrc0</text>
<text text-anchor="middle" x="180" y="-291.6" font-family="Bitstream Vera Sans" font-size="8.00">[=]</text>
<text text-anchor="middle" x="180" y="-282.6" font-family="Bitstream Vera Sans" font-size="8.00">mode=1080i5994</text>
<text text-anchor="middle" x="180" y="-273.6" font-family="Bitstream Vera Sans" font-size="8.00">connection=sdi</text>
<text text-anchor="middle" x="180" y="-264.6" font-family="Bitstream Vera Sans" font-size="8.00">device&#45;number=1</text>
<text text-anchor="middle" x="180" y="-255.6" font-family="Bitstream Vera Sans" font-size="8.00">signal=TRUE</text>
<text text-anchor="middle" x="180" y="-246.6" font-family="Bitstream Vera Sans" font-size="8.00">hw&#45;serial&#45;number=&quot;&quot;</text>
</g>
<g id="clust20" class="cluster">
<title>cluster_decklinkvideosrc0_0x564d1cb98850_src</title>
</g>
<!-- legend -->
<g id="node1" class="node">
<title>legend</title>
<polygon fill="lightgrey" stroke="black" points="359,-58 0,-58 0,0 359,0 359,-58"/>
<text text-anchor="start" x="4" y="-46.8" font-family="sans" font-size="9.00">Legend</text>
<text text-anchor="start" x="4" y="-36.8" font-family="sans" font-size="9.00">Element&#45;States: [~] void&#45;pending, [0] null, [&#45;] ready, [=] paused, [&gt;] playing</text>
<text text-anchor="start" x="4" y="-26.8" font-family="sans" font-size="9.00">Pad&#45;Activation: [&#45;] none, [&gt;] push, [&lt;] pull</text>
<text text-anchor="start" x="4" y="-16.8" font-family="sans" font-size="9.00">Pad&#45;Flags: [b]locked, [f]lushing, [b]locking, [E]OS; upper&#45;case is set</text>
<text text-anchor="start" x="4" y="-6.8" font-family="sans" font-size="9.00">Pad&#45;Task: [T] has started task, [t] has paused task</text>
</g>
<!-- decklinkaudiosink0_0x564d1cbce4c0_sink_0x564d1cbce960 -->
<g id="node2" class="node">
<title>decklinkaudiosink0_0x564d1cbce4c0_sink_0x564d1cbce960</title>
<polygon fill="#aaaaff" stroke="black" points="715,-102 661,-102 661,-82 715,-82 715,-102"/>
<text text-anchor="middle" x="688" y="-94.8" font-family="sans" font-size="9.00">sink</text>
<text text-anchor="middle" x="688" y="-84.8" font-family="sans" font-size="9.00">[&gt;][bfb]</text>
</g>
<!-- decklinkaudiosrc0_0x564d1cbcca70_src_0x564d1cbccf50 -->
<g id="node3" class="node">
<title>decklinkaudiosrc0_0x564d1cbcca70_src_0x564d1cbccf50</title>
<polygon fill="#ffaaaa" stroke="black" points="206.5,-102 152.5,-102 152.5,-82 206.5,-82 206.5,-102"/>
<text text-anchor="middle" x="179.5" y="-94.8" font-family="sans" font-size="9.00">src</text>
<text text-anchor="middle" x="179.5" y="-84.8" font-family="sans" font-size="9.00">[&gt;][bfb][T]</text>
</g>
<!-- decklinkaudiosrc0_0x564d1cbcca70_src_0x564d1cbccf50&#45;&gt;decklinkaudiosink0_0x564d1cbce4c0_sink_0x564d1cbce960 -->
<g id="edge1" class="edge">
<title>decklinkaudiosrc0_0x564d1cbcca70_src_0x564d1cbccf50&#45;&gt;decklinkaudiosink0_0x564d1cbce4c0_sink_0x564d1cbce960</title>
<path fill="none" stroke="black" d="M206.67,-92C290.72,-92 554.02,-92 650.82,-92"/>
<polygon fill="black" stroke="black" points="650.99,-95.5 660.99,-92 650.99,-88.5 650.99,-95.5"/>
<text text-anchor="start" x="367" y="-144.8" font-family="monospace" font-size="9.00">audio/x&#45;raw</text>
<text text-anchor="start" x="367" y="-134.8" font-family="monospace" font-size="9.00"> &#160;&#160;&#160;&#160;&#160;&#160;&#160;&#160;&#160;&#160;&#160;&#160;&#160;format: S32LE</text>
<text text-anchor="start" x="367" y="-124.8" font-family="monospace" font-size="9.00"> &#160;&#160;&#160;&#160;&#160;&#160;&#160;&#160;&#160;&#160;&#160;&#160;&#160;layout: interleaved</text>
<text text-anchor="start" x="367" y="-114.8" font-family="monospace" font-size="9.00"> &#160;&#160;&#160;&#160;&#160;&#160;&#160;&#160;&#160;&#160;&#160;&#160;&#160;&#160;&#160;rate: 48000</text>
<text text-anchor="start" x="367" y="-104.8" font-family="monospace" font-size="9.00"> &#160;&#160;&#160;&#160;&#160;&#160;&#160;&#160;&#160;&#160;&#160;channels: 2</text>
<text text-anchor="start" x="367" y="-94.8" font-family="monospace" font-size="9.00"> &#160;&#160;&#160;&#160;&#160;&#160;&#160;channel&#45;mask: 0x0000000000000003</text>
</g>
<!-- decklinkvideosink0_0x564d1cbcb020_sink_0x564d1cbcb450 -->
<g id="node4" class="node">
<title>decklinkvideosink0_0x564d1cbcb020_sink_0x564d1cbcb450</title>
<polygon fill="#aaaaff" stroke="black" points="2526,-224 2472,-224 2472,-204 2526,-204 2526,-224"/>
<text text-anchor="middle" x="2499" y="-216.8" font-family="sans" font-size="9.00">sink</text>
<text text-anchor="middle" x="2499" y="-206.8" font-family="sans" font-size="9.00">[&gt;][bfb]</text>
</g>
<!-- videoconvert1_0x564d1cbae9e0_sink_0x564d1cbaee20 -->
<g id="node5" class="node">
<title>videoconvert1_0x564d1cbae9e0_sink_0x564d1cbaee20</title>
<polygon fill="#aaaaff" stroke="black" points="2083,-224 2029,-224 2029,-204 2083,-204 2083,-224"/>
<text text-anchor="middle" x="2056" y="-216.8" font-family="sans" font-size="9.00">sink</text>
<text text-anchor="middle" x="2056" y="-206.8" font-family="sans" font-size="9.00">[&gt;][bfb]</text>
</g>
<!-- videoconvert1_0x564d1cbae9e0_src_0x564d1cbaf1a0 -->
<g id="node6" class="node">
<title>videoconvert1_0x564d1cbae9e0_src_0x564d1cbaf1a0</title>
<polygon fill="#ffaaaa" stroke="black" points="2170,-224 2116,-224 2116,-204 2170,-204 2170,-224"/>
<text text-anchor="middle" x="2143" y="-216.8" font-family="sans" font-size="9.00">src</text>
<text text-anchor="middle" x="2143" y="-206.8" font-family="sans" font-size="9.00">[&gt;][bfb]</text>
</g>
<!-- videoconvert1_0x564d1cbae9e0_sink_0x564d1cbaee20&#45;&gt;videoconvert1_0x564d1cbae9e0_src_0x564d1cbaf1a0 -->
<!-- videoconvert1_0x564d1cbae9e0_src_0x564d1cbaf1a0&#45;&gt;decklinkvideosink0_0x564d1cbcb020_sink_0x564d1cbcb450 -->
<g id="edge3" class="edge">
<title>videoconvert1_0x564d1cbae9e0_src_0x564d1cbaf1a0&#45;&gt;decklinkvideosink0_0x564d1cbcb020_sink_0x564d1cbcb450</title>
<path fill="none" stroke="black" d="M2170.03,-214C2232.3,-214 2389.98,-214 2461.61,-214"/>
<polygon fill="black" stroke="black" points="2461.93,-217.5 2471.93,-214 2461.93,-210.5 2461.93,-217.5"/>
<text text-anchor="start" x="2194" y="-306.8" font-family="monospace" font-size="9.00">video/x&#45;raw</text>
<text text-anchor="start" x="2194" y="-296.8" font-family="monospace" font-size="9.00"> &#160;&#160;&#160;&#160;&#160;&#160;&#160;&#160;&#160;&#160;&#160;&#160;&#160;&#160;width: 1920</text>
<text text-anchor="start" x="2194" y="-286.8" font-family="monospace" font-size="9.00"> &#160;&#160;&#160;&#160;&#160;&#160;&#160;&#160;&#160;&#160;&#160;&#160;&#160;height: 1080</text>
<text text-anchor="start" x="2194" y="-276.8" font-family="monospace" font-size="9.00"> &#160;pixel&#45;aspect&#45;ratio: 1/1</text>
<text text-anchor="start" x="2194" y="-266.8" font-family="monospace" font-size="9.00"> &#160;&#160;&#160;&#160;&#160;interlace&#45;mode: interleaved</text>
<text text-anchor="start" x="2194" y="-256.8" font-family="monospace" font-size="9.00"> &#160;&#160;&#160;&#160;&#160;&#160;&#160;&#160;&#160;&#160;framerate: 30000/1001</text>
<text text-anchor="start" x="2194" y="-246.8" font-family="monospace" font-size="9.00"> &#160;&#160;&#160;&#160;&#160;&#160;&#160;&#160;field&#45;order: top&#45;field&#45;first</text>
<text text-anchor="start" x="2194" y="-236.8" font-family="monospace" font-size="9.00"> &#160;&#160;&#160;&#160;&#160;&#160;&#160;&#160;&#160;&#160;&#160;&#160;&#160;format: UYVY</text>
<text text-anchor="start" x="2194" y="-226.8" font-family="monospace" font-size="9.00"> &#160;&#160;&#160;&#160;&#160;&#160;&#160;&#160;colorimetry: bt709</text>
<text text-anchor="start" x="2194" y="-216.8" font-family="monospace" font-size="9.00"> &#160;&#160;&#160;&#160;&#160;&#160;&#160;&#160;chroma&#45;site: mpeg2</text>
</g>
<!-- capsfilter0_0x564d1cbadde0_sink_0x564d1cbae0c0 -->
<g id="node7" class="node">
<title>capsfilter0_0x564d1cbadde0_sink_0x564d1cbae0c0</title>
<polygon fill="#aaaaff" stroke="black" points="1625,-224 1571,-224 1571,-204 1625,-204 1625,-224"/>
<text text-anchor="middle" x="1598" y="-216.8" font-family="sans" font-size="9.00">sink</text>
<text text-anchor="middle" x="1598" y="-206.8" font-family="sans" font-size="9.00">[&gt;][bfb]</text>
</g>
<!-- capsfilter0_0x564d1cbadde0_src_0x564d1cbae3a0 -->
<g id="node8" class="node">
<title>capsfilter0_0x564d1cbadde0_src_0x564d1cbae3a0</title>
<polygon fill="#ffaaaa" stroke="black" points="1712,-224 1658,-224 1658,-204 1712,-204 1712,-224"/>
<text text-anchor="middle" x="1685" y="-216.8" font-family="sans" font-size="9.00">src</text>
<text text-anchor="middle" x="1685" y="-206.8" font-family="sans" font-size="9.00">[&gt;][bfb]</text>
</g>
<!-- capsfilter0_0x564d1cbadde0_sink_0x564d1cbae0c0&#45;&gt;capsfilter0_0x564d1cbadde0_src_0x564d1cbae3a0 -->
<!-- capsfilter0_0x564d1cbadde0_src_0x564d1cbae3a0&#45;&gt;videoconvert1_0x564d1cbae9e0_sink_0x564d1cbaee20 -->
<g id="edge5" class="edge">
<title>capsfilter0_0x564d1cbadde0_src_0x564d1cbae3a0&#45;&gt;videoconvert1_0x564d1cbae9e0_sink_0x564d1cbaee20</title>
<path fill="none" stroke="black" d="M1712.24,-214C1776.9,-214 1944,-214 2018.37,-214"/>
<polygon fill="black" stroke="black" points="2018.65,-217.5 2028.65,-214 2018.65,-210.5 2018.65,-217.5"/>
<text text-anchor="start" x="1810" y="-286.8" font-family="monospace" font-size="9.00">video/x&#45;raw</text>
<text text-anchor="start" x="1810" y="-276.8" font-family="monospace" font-size="9.00"> &#160;&#160;&#160;&#160;&#160;&#160;&#160;&#160;&#160;&#160;&#160;&#160;&#160;&#160;width: 1920</text>
<text text-anchor="start" x="1810" y="-266.8" font-family="monospace" font-size="9.00"> &#160;&#160;&#160;&#160;&#160;&#160;&#160;&#160;&#160;&#160;&#160;&#160;&#160;height: 1080</text>
<text text-anchor="start" x="1810" y="-256.8" font-family="monospace" font-size="9.00"> &#160;pixel&#45;aspect&#45;ratio: 1/1</text>
<text text-anchor="start" x="1810" y="-246.8" font-family="monospace" font-size="9.00"> &#160;&#160;&#160;&#160;&#160;interlace&#45;mode: interleaved</text>
<text text-anchor="start" x="1810" y="-236.8" font-family="monospace" font-size="9.00"> &#160;&#160;&#160;&#160;&#160;&#160;&#160;&#160;&#160;&#160;framerate: 30000/1001</text>
<text text-anchor="start" x="1810" y="-226.8" font-family="monospace" font-size="9.00"> &#160;&#160;&#160;&#160;&#160;&#160;&#160;&#160;field&#45;order: top&#45;field&#45;first</text>
<text text-anchor="start" x="1810" y="-216.8" font-family="monospace" font-size="9.00"> &#160;&#160;&#160;&#160;&#160;&#160;&#160;&#160;&#160;&#160;&#160;&#160;&#160;format: BGR</text>
</g>
<!-- videoconvert0_0x564d1cbac5f0_sink_0x564d1cbaca10 -->
<g id="node9" class="node">
<title>videoconvert0_0x564d1cbac5f0_sink_0x564d1cbaca10</title>
<polygon fill="#aaaaff" stroke="black" points="1167,-224 1113,-224 1113,-204 1167,-204 1167,-224"/>
<text text-anchor="middle" x="1140" y="-216.8" font-family="sans" font-size="9.00">sink</text>
<text text-anchor="middle" x="1140" y="-206.8" font-family="sans" font-size="9.00">[&gt;][bfb]</text>
</g>
<!-- videoconvert0_0x564d1cbac5f0_src_0x564d1cbacd40 -->
<g id="node10" class="node">
<title>videoconvert0_0x564d1cbac5f0_src_0x564d1cbacd40</title>
<polygon fill="#ffaaaa" stroke="black" points="1254,-224 1200,-224 1200,-204 1254,-204 1254,-224"/>
<text text-anchor="middle" x="1227" y="-216.8" font-family="sans" font-size="9.00">src</text>
<text text-anchor="middle" x="1227" y="-206.8" font-family="sans" font-size="9.00">[&gt;][bfb]</text>
</g>
<!-- videoconvert0_0x564d1cbac5f0_sink_0x564d1cbaca10&#45;&gt;videoconvert0_0x564d1cbac5f0_src_0x564d1cbacd40 -->
<!-- videoconvert0_0x564d1cbac5f0_src_0x564d1cbacd40&#45;&gt;capsfilter0_0x564d1cbadde0_sink_0x564d1cbae0c0 -->
<g id="edge7" class="edge">
<title>videoconvert0_0x564d1cbac5f0_src_0x564d1cbacd40&#45;&gt;capsfilter0_0x564d1cbadde0_sink_0x564d1cbae0c0</title>
<path fill="none" stroke="black" d="M1254.24,-214C1318.9,-214 1486,-214 1560.37,-214"/>
<polygon fill="black" stroke="black" points="1560.65,-217.5 1570.65,-214 1560.65,-210.5 1560.65,-217.5"/>
<text text-anchor="start" x="1278" y="-286.8" font-family="monospace" font-size="9.00">video/x&#45;raw</text>
<text text-anchor="start" x="1278" y="-276.8" font-family="monospace" font-size="9.00"> &#160;&#160;&#160;&#160;&#160;&#160;&#160;&#160;&#160;&#160;&#160;&#160;&#160;&#160;width: 1920</text>
<text text-anchor="start" x="1278" y="-266.8" font-family="monospace" font-size="9.00"> &#160;&#160;&#160;&#160;&#160;&#160;&#160;&#160;&#160;&#160;&#160;&#160;&#160;height: 1080</text>
<text text-anchor="start" x="1278" y="-256.8" font-family="monospace" font-size="9.00"> &#160;pixel&#45;aspect&#45;ratio: 1/1</text>
<text text-anchor="start" x="1278" y="-246.8" font-family="monospace" font-size="9.00"> &#160;&#160;&#160;&#160;&#160;interlace&#45;mode: interleaved</text>
<text text-anchor="start" x="1278" y="-236.8" font-family="monospace" font-size="9.00"> &#160;&#160;&#160;&#160;&#160;&#160;&#160;&#160;&#160;&#160;framerate: 30000/1001</text>
<text text-anchor="start" x="1278" y="-226.8" font-family="monospace" font-size="9.00"> &#160;&#160;&#160;&#160;&#160;&#160;&#160;&#160;field&#45;order: top&#45;field&#45;first</text>
<text text-anchor="start" x="1278" y="-216.8" font-family="monospace" font-size="9.00"> &#160;&#160;&#160;&#160;&#160;&#160;&#160;&#160;&#160;&#160;&#160;&#160;&#160;format: BGR</text>
</g>
<!-- queue0_0x564d1c974160_sink_0x564d1cb9f460 -->
<g id="node11" class="node">
<title>queue0_0x564d1c974160_sink_0x564d1cb9f460</title>
<polygon fill="#aaaaff" stroke="black" points="715,-224 661,-224 661,-204 715,-204 715,-224"/>
<text text-anchor="middle" x="688" y="-216.8" font-family="sans" font-size="9.00">sink</text>
<text text-anchor="middle" x="688" y="-206.8" font-family="sans" font-size="9.00">[&gt;][bfb]</text>
</g>
<!-- queue0_0x564d1c974160_src_0x564d1cb9f850 -->
<g id="node12" class="node">
<title>queue0_0x564d1c974160_src_0x564d1cb9f850</title>
<polygon fill="#ffaaaa" stroke="black" points="870,-224 816,-224 816,-204 870,-204 870,-224"/>
<text text-anchor="middle" x="843" y="-216.8" font-family="sans" font-size="9.00">src</text>
<text text-anchor="middle" x="843" y="-206.8" font-family="sans" font-size="9.00">[&gt;][bfb][T]</text>
</g>
<!-- queue0_0x564d1c974160_sink_0x564d1cb9f460&#45;&gt;queue0_0x564d1c974160_src_0x564d1cb9f850 -->
<!-- queue0_0x564d1c974160_src_0x564d1cb9f850&#45;&gt;videoconvert0_0x564d1cbac5f0_sink_0x564d1cbaca10 -->
<g id="edge9" class="edge">
<title>queue0_0x564d1c974160_src_0x564d1cb9f850&#45;&gt;videoconvert0_0x564d1cbac5f0_sink_0x564d1cbaca10</title>
<path fill="none" stroke="black" d="M870.18,-214C922.99,-214 1042.37,-214 1102.68,-214"/>
<polygon fill="black" stroke="black" points="1102.88,-217.5 1112.88,-214 1102.88,-210.5 1102.88,-217.5"/>
<text text-anchor="start" x="894" y="-306.8" font-family="monospace" font-size="9.00">video/x&#45;raw</text>
<text text-anchor="start" x="894" y="-296.8" font-family="monospace" font-size="9.00"> &#160;&#160;&#160;&#160;&#160;&#160;&#160;&#160;&#160;&#160;&#160;&#160;&#160;&#160;width: 1920</text>
<text text-anchor="start" x="894" y="-286.8" font-family="monospace" font-size="9.00"> &#160;&#160;&#160;&#160;&#160;&#160;&#160;&#160;&#160;&#160;&#160;&#160;&#160;height: 1080</text>
<text text-anchor="start" x="894" y="-276.8" font-family="monospace" font-size="9.00"> &#160;pixel&#45;aspect&#45;ratio: 1/1</text>
<text text-anchor="start" x="894" y="-266.8" font-family="monospace" font-size="9.00"> &#160;&#160;&#160;&#160;&#160;interlace&#45;mode: interleaved</text>
<text text-anchor="start" x="894" y="-256.8" font-family="monospace" font-size="9.00"> &#160;&#160;&#160;&#160;&#160;&#160;&#160;&#160;&#160;&#160;framerate: 30000/1001</text>
<text text-anchor="start" x="894" y="-246.8" font-family="monospace" font-size="9.00"> &#160;&#160;&#160;&#160;&#160;&#160;&#160;&#160;field&#45;order: top&#45;field&#45;first</text>
<text text-anchor="start" x="894" y="-236.8" font-family="monospace" font-size="9.00"> &#160;&#160;&#160;&#160;&#160;&#160;&#160;&#160;&#160;&#160;&#160;&#160;&#160;format: UYVY</text>
<text text-anchor="start" x="894" y="-226.8" font-family="monospace" font-size="9.00"> &#160;&#160;&#160;&#160;&#160;&#160;&#160;&#160;colorimetry: bt709</text>
<text text-anchor="start" x="894" y="-216.8" font-family="monospace" font-size="9.00"> &#160;&#160;&#160;&#160;&#160;&#160;&#160;&#160;chroma&#45;site: mpeg2</text>
</g>
<!-- decklinkvideosrc0_0x564d1cb98850_src_0x564d1cb98d10 -->
<g id="node13" class="node">
<title>decklinkvideosrc0_0x564d1cb98850_src_0x564d1cb98d10</title>
<polygon fill="#ffaaaa" stroke="black" points="206.5,-224 152.5,-224 152.5,-204 206.5,-204 206.5,-224"/>
<text text-anchor="middle" x="179.5" y="-216.8" font-family="sans" font-size="9.00">src</text>
<text text-anchor="middle" x="179.5" y="-206.8" font-family="sans" font-size="9.00">[&gt;][bfb][T]</text>
</g>
<!-- decklinkvideosrc0_0x564d1cb98850_src_0x564d1cb98d10&#45;&gt;queue0_0x564d1c974160_sink_0x564d1cb9f460 -->
<g id="edge10" class="edge">
<title>decklinkvideosrc0_0x564d1cb98850_src_0x564d1cb98d10&#45;&gt;queue0_0x564d1c974160_sink_0x564d1cb9f460</title>
<path fill="none" stroke="black" d="M206.67,-214C290.72,-214 554.02,-214 650.82,-214"/>
<polygon fill="black" stroke="black" points="650.99,-217.5 660.99,-214 650.99,-210.5 650.99,-217.5"/>
<text text-anchor="start" x="375" y="-306.8" font-family="monospace" font-size="9.00">video/x&#45;raw</text>
<text text-anchor="start" x="375" y="-296.8" font-family="monospace" font-size="9.00"> &#160;&#160;&#160;&#160;&#160;&#160;&#160;&#160;&#160;&#160;&#160;&#160;&#160;&#160;width: 1920</text>
<text text-anchor="start" x="375" y="-286.8" font-family="monospace" font-size="9.00"> &#160;&#160;&#160;&#160;&#160;&#160;&#160;&#160;&#160;&#160;&#160;&#160;&#160;height: 1080</text>
<text text-anchor="start" x="375" y="-276.8" font-family="monospace" font-size="9.00"> &#160;pixel&#45;aspect&#45;ratio: 1/1</text>
<text text-anchor="start" x="375" y="-266.8" font-family="monospace" font-size="9.00"> &#160;&#160;&#160;&#160;&#160;interlace&#45;mode: interleaved</text>
<text text-anchor="start" x="375" y="-256.8" font-family="monospace" font-size="9.00"> &#160;&#160;&#160;&#160;&#160;&#160;&#160;&#160;&#160;&#160;framerate: 30000/1001</text>
<text text-anchor="start" x="375" y="-246.8" font-family="monospace" font-size="9.00"> &#160;&#160;&#160;&#160;&#160;&#160;&#160;&#160;field&#45;order: top&#45;field&#45;first</text>
<text text-anchor="start" x="375" y="-236.8" font-family="monospace" font-size="9.00"> &#160;&#160;&#160;&#160;&#160;&#160;&#160;&#160;&#160;&#160;&#160;&#160;&#160;format: UYVY</text>
<text text-anchor="start" x="375" y="-226.8" font-family="monospace" font-size="9.00"> &#160;&#160;&#160;&#160;&#160;&#160;&#160;&#160;colorimetry: bt709</text>
<text text-anchor="start" x="375" y="-216.8" font-family="monospace" font-size="9.00"> &#160;&#160;&#160;&#160;&#160;&#160;&#160;&#160;chroma&#45;site: mpeg2</text>
</g>
</g>
</svg>
