<?xml version="1.0" encoding="UTF-8" standalone="no"?>
<!DOCTYPE svg PUBLIC "-//W3C//DTD SVG 1.1//EN"
 "http://www.w3.org/Graphics/SVG/1.1/DTD/svg11.dtd">
<!-- Generated by graphviz version 2.43.0 (0)
 -->
<!-- Title: pipeline Pages: 1 -->
<svg width="2226pt" height="368pt"
 viewBox="0.00 0.00 2226.00 368.00" xmlns="http://www.w3.org/2000/svg" xmlns:xlink="http://www.w3.org/1999/xlink">
<g id="graph0" class="graph" transform="scale(1 1) rotate(0) translate(4 364)">
<title>pipeline</title>
<polygon fill="white" stroke="transparent" points="-4,4 -4,-364 2222,-364 2222,4 -4,4"/>
<text text-anchor="middle" x="1109" y="-348" font-family="sans" font-size="10.00">&lt;GstPipeline&gt;</text>
<text text-anchor="middle" x="1109" y="-337" font-family="sans" font-size="10.00">pipeline0</text>
<text text-anchor="middle" x="1109" y="-326" font-family="sans" font-size="10.00">[=] &#45;&gt; [0]</text>
<g id="clust1" class="cluster">
<title>cluster_capsfilter0_0x55df28b980e0</title>
<path fill="#aaffaa" stroke="black" d="M1450,-66C1450,-66 1812,-66 1812,-66 1818,-66 1824,-72 1824,-78 1824,-78 1824,-150 1824,-150 1824,-156 1818,-162 1812,-162 1812,-162 1450,-162 1450,-162 1444,-162 1438,-156 1438,-150 1438,-150 1438,-78 1438,-78 1438,-72 1444,-66 1450,-66"/>
<text text-anchor="middle" x="1631" y="-151.6" font-family="Bitstream Vera Sans" font-size="8.00">GstCapsFilter</text>
<text text-anchor="middle" x="1631" y="-142.6" font-family="Bitstream Vera Sans" font-size="8.00">capsfilter0</text>
<text text-anchor="middle" x="1631" y="-133.6" font-family="Bitstream Vera Sans" font-size="8.00">[=]</text>
<text text-anchor="middle" x="1631" y="-124.6" font-family="Bitstream Vera Sans" font-size="8.00">caps=video/x&#45;raw, format=(string)UYVY, width=(int)1920, height=(int)1080, pixel&#45;aspec…</text>
</g>
<g id="clust2" class="cluster">
<title>cluster_capsfilter0_0x55df28b980e0_sink</title>
</g>
<g id="clust3" class="cluster">
<title>cluster_capsfilter0_0x55df28b980e0_src</title>
</g>
<g id="clust4" class="cluster">
<title>cluster_decklinkaudiosink0_0x55df28b8c620</title>
<path fill="#aaaaff" stroke="black" d="M598,-197C598,-197 778,-197 778,-197 784,-197 790,-203 790,-209 790,-209 790,-299 790,-299 790,-305 784,-311 778,-311 778,-311 598,-311 598,-311 592,-311 586,-305 586,-299 586,-299 586,-209 586,-209 586,-203 592,-197 598,-197"/>
<text text-anchor="middle" x="688" y="-300.6" font-family="Bitstream Vera Sans" font-size="8.00">GstDecklinkAudioSink</text>
<text text-anchor="middle" x="688" y="-291.6" font-family="Bitstream Vera Sans" font-size="8.00">decklinkaudiosink0</text>
<text text-anchor="middle" x="688" y="-282.6" font-family="Bitstream Vera Sans" font-size="8.00">[=]</text>
<text text-anchor="middle" x="688" y="-273.6" font-family="Bitstream Vera Sans" font-size="8.00">max&#45;lateness=20000000</text>
<text text-anchor="middle" x="688" y="-264.6" font-family="Bitstream Vera Sans" font-size="8.00">last&#45;sample=((GstSample*) 0x55df28b24430)</text>
<text text-anchor="middle" x="688" y="-255.6" font-family="Bitstream Vera Sans" font-size="8.00">hw&#45;serial&#45;number=&quot;&quot;</text>
</g>
<g id="clust5" class="cluster">
<title>cluster_decklinkaudiosink0_0x55df28b8c620_sink</title>
</g>
<g id="clust6" class="cluster">
<title>cluster_decklinkaudiosrc0_0x55df28b8b3f0</title>
<path fill="#ffaaaa" stroke="black" d="M140.5,-197C140.5,-197 219.5,-197 219.5,-197 225.5,-197 231.5,-203 231.5,-209 231.5,-209 231.5,-290 231.5,-290 231.5,-296 225.5,-302 219.5,-302 219.5,-302 140.5,-302 140.5,-302 134.5,-302 128.5,-296 128.5,-290 128.5,-290 128.5,-209 128.5,-209 128.5,-203 134.5,-197 140.5,-197"/>
<text text-anchor="middle" x="180" y="-291.6" font-family="Bitstream Vera Sans" font-size="8.00">GstDecklinkAudioSrc</text>
<text text-anchor="middle" x="180" y="-282.6" font-family="Bitstream Vera Sans" font-size="8.00">decklinkaudiosrc0</text>
<text text-anchor="middle" x="180" y="-273.6" font-family="Bitstream Vera Sans" font-size="8.00">[=]</text>
<text text-anchor="middle" x="180" y="-264.6" font-family="Bitstream Vera Sans" font-size="8.00">device&#45;number=1</text>
<text text-anchor="middle" x="180" y="-255.6" font-family="Bitstream Vera Sans" font-size="8.00">hw&#45;serial&#45;number=&quot;&quot;</text>
</g>
<g id="clust7" class="cluster">
<title>cluster_decklinkaudiosrc0_0x55df28b8b3f0_src</title>
</g>
<g id="clust8" class="cluster">
<title>cluster_decklinkvideosink0_0x55df28b8a350</title>
<path fill="#aaaaff" stroke="black" d="M2026,-66C2026,-66 2206,-66 2206,-66 2212,-66 2218,-72 2218,-78 2218,-78 2218,-186 2218,-186 2218,-192 2212,-198 2206,-198 2206,-198 2026,-198 2026,-198 2020,-198 2014,-192 2014,-186 2014,-186 2014,-78 2014,-78 2014,-72 2020,-66 2026,-66"/>
<text text-anchor="middle" x="2116" y="-187.6" font-family="Bitstream Vera Sans" font-size="8.00">GstDecklinkVideoSink</text>
<text text-anchor="middle" x="2116" y="-178.6" font-family="Bitstream Vera Sans" font-size="8.00">decklinkvideosink0</text>
<text text-anchor="middle" x="2116" y="-169.6" font-family="Bitstream Vera Sans" font-size="8.00">[&gt;] &#45;&gt; [=]</text>
<text text-anchor="middle" x="2116" y="-160.6" font-family="Bitstream Vera Sans" font-size="8.00">max&#45;lateness=20000000</text>
<text text-anchor="middle" x="2116" y="-151.6" font-family="Bitstream Vera Sans" font-size="8.00">qos=TRUE</text>
<text text-anchor="middle" x="2116" y="-142.6" font-family="Bitstream Vera Sans" font-size="8.00">last&#45;sample=((GstSample*) 0x55df28b24510)</text>
<text text-anchor="middle" x="2116" y="-133.6" font-family="Bitstream Vera Sans" font-size="8.00">mode=1080p5994</text>
<text text-anchor="middle" x="2116" y="-124.6" font-family="Bitstream Vera Sans" font-size="8.00">hw&#45;serial&#45;number=&quot;&quot;</text>
</g>
<g id="clust9" class="cluster">
<title>cluster_decklinkvideosink0_0x55df28b8a350_sink</title>
</g>
<g id="clust10" class="cluster">
<title>cluster_videoconvert0_0x55df28b5d7e0</title>
<path fill="#aaffaa" stroke="black" d="M1087,-66C1087,-66 1236,-66 1236,-66 1242,-66 1248,-72 1248,-78 1248,-78 1248,-150 1248,-150 1248,-156 1242,-162 1236,-162 1236,-162 1087,-162 1087,-162 1081,-162 1075,-156 1075,-150 1075,-150 1075,-78 1075,-78 1075,-72 1081,-66 1087,-66"/>
<text text-anchor="middle" x="1161.5" y="-151.6" font-family="Bitstream Vera Sans" font-size="8.00">GstVideoConvert</text>
<text text-anchor="middle" x="1161.5" y="-142.6" font-family="Bitstream Vera Sans" font-size="8.00">videoconvert0</text>
<text text-anchor="middle" x="1161.5" y="-133.6" font-family="Bitstream Vera Sans" font-size="8.00">[=]</text>
<text text-anchor="middle" x="1161.5" y="-124.6" font-family="Bitstream Vera Sans" font-size="8.00">qos=TRUE</text>
</g>
<g id="clust11" class="cluster">
<title>cluster_videoconvert0_0x55df28b5d7e0_sink</title>
</g>
<g id="clust12" class="cluster">
<title>cluster_videoconvert0_0x55df28b5d7e0_src</title>
</g>
<g id="clust13" class="cluster">
<title>cluster_deinterlace0_0x55df28b58870</title>
<path fill="#aaffaa" stroke="black" d="M657,-66C657,-66 873,-66 873,-66 879,-66 885,-72 885,-78 885,-78 885,-141 885,-141 885,-147 879,-153 873,-153 873,-153 657,-153 657,-153 651,-153 645,-147 645,-141 645,-141 645,-78 645,-78 645,-72 651,-66 657,-66"/>
<text text-anchor="middle" x="765" y="-142.6" font-family="Bitstream Vera Sans" font-size="8.00">GstDeinterlace</text>
<text text-anchor="middle" x="765" y="-133.6" font-family="Bitstream Vera Sans" font-size="8.00">deinterlace0</text>
<text text-anchor="middle" x="765" y="-124.6" font-family="Bitstream Vera Sans" font-size="8.00">[=]</text>
</g>
<g id="clust14" class="cluster">
<title>cluster_deinterlace0_0x55df28b58870_sink</title>
</g>
<g id="clust15" class="cluster">
<title>cluster_deinterlace0_0x55df28b58870_src</title>
</g>
<g id="clust16" class="cluster">
<title>cluster_decklinkvideosrc0_0x55df28b346e0</title>
<path fill="#ffaaaa" stroke="black" d="M140.5,-66C140.5,-66 219.5,-66 219.5,-66 225.5,-66 231.5,-72 231.5,-78 231.5,-78 231.5,-177 231.5,-177 231.5,-183 225.5,-189 219.5,-189 219.5,-189 140.5,-189 140.5,-189 134.5,-189 128.5,-183 128.5,-177 128.5,-177 128.5,-78 128.5,-78 128.5,-72 134.5,-66 140.5,-66"/>
<text text-anchor="middle" x="180" y="-178.6" font-family="Bitstream Vera Sans" font-size="8.00">GstDecklinkVideoSrc</text>
<text text-anchor="middle" x="180" y="-169.6" font-family="Bitstream Vera Sans" font-size="8.00">decklinkvideosrc0</text>
<text text-anchor="middle" x="180" y="-160.6" font-family="Bitstream Vera Sans" font-size="8.00">[=]</text>
<text text-anchor="middle" x="180" y="-151.6" font-family="Bitstream Vera Sans" font-size="8.00">mode=1080i5994</text>
<text text-anchor="middle" x="180" y="-142.6" font-family="Bitstream Vera Sans" font-size="8.00">device&#45;number=1</text>
<text text-anchor="middle" x="180" y="-133.6" font-family="Bitstream Vera Sans" font-size="8.00">signal=TRUE</text>
<text text-anchor="middle" x="180" y="-124.6" font-family="Bitstream Vera Sans" font-size="8.00">hw&#45;serial&#45;number=&quot;&quot;</text>
</g>
<g id="clust17" class="cluster">
<title>cluster_decklinkvideosrc0_0x55df28b346e0_src</title>
</g>
<!-- legend -->
<g id="node1" class="node">
<title>legend</title>
<polygon fill="lightgrey" stroke="black" points="359,-58 0,-58 0,0 359,0 359,-58"/>
<text text-anchor="start" x="4" y="-46.8" font-family="sans" font-size="9.00">Legend</text>
<text text-anchor="start" x="4" y="-36.8" font-family="sans" font-size="9.00">Element&#45;States: [~] void&#45;pending, [0] null, [&#45;] ready, [=] paused, [&gt;] playing</text>
<text text-anchor="start" x="4" y="-26.8" font-family="sans" font-size="9.00">Pad&#45;Activation: [&#45;] none, [&gt;] push, [&lt;] pull</text>
<text text-anchor="start" x="4" y="-16.8" font-family="sans" font-size="9.00">Pad&#45;Flags: [b]locked, [f]lushing, [b]locking, [E]OS; upper&#45;case is set</text>
<text text-anchor="start" x="4" y="-6.8" font-family="sans" font-size="9.00">Pad&#45;Task: [T] has started task, [t] has paused task</text>
</g>
<!-- capsfilter0_0x55df28b980e0_sink_0x55df28b373b0 -->
<g id="node2" class="node">
<title>capsfilter0_0x55df28b980e0_sink_0x55df28b373b0</title>
<polygon fill="#aaaaff" stroke="black" points="1614,-102 1560,-102 1560,-82 1614,-82 1614,-102"/>
<text text-anchor="middle" x="1587" y="-94.8" font-family="sans" font-size="9.00">sink</text>
<text text-anchor="middle" x="1587" y="-84.8" font-family="sans" font-size="9.00">[&gt;][bfb]</text>
</g>
<!-- capsfilter0_0x55df28b980e0_src_0x55df28b37600 -->
<g id="node3" class="node">
<title>capsfilter0_0x55df28b980e0_src_0x55df28b37600</title>
<polygon fill="#ffaaaa" stroke="black" points="1701,-102 1647,-102 1647,-82 1701,-82 1701,-102"/>
<text text-anchor="middle" x="1674" y="-94.8" font-family="sans" font-size="9.00">src</text>
<text text-anchor="middle" x="1674" y="-84.8" font-family="sans" font-size="9.00">[&gt;][bfb]</text>
</g>
<!-- capsfilter0_0x55df28b980e0_sink_0x55df28b373b0&#45;&gt;capsfilter0_0x55df28b980e0_src_0x55df28b37600 -->
<!-- decklinkvideosink0_0x55df28b8a350_sink_0x55df28b36cc0 -->
<g id="node4" class="node">
<title>decklinkvideosink0_0x55df28b8a350_sink_0x55df28b36cc0</title>
<polygon fill="#aaaaff" stroke="black" points="2143,-102 2089,-102 2089,-82 2143,-82 2143,-102"/>
<text text-anchor="middle" x="2116" y="-94.8" font-family="sans" font-size="9.00">sink</text>
<text text-anchor="middle" x="2116" y="-84.8" font-family="sans" font-size="9.00">[&gt;][bfb]</text>
</g>
<!-- capsfilter0_0x55df28b980e0_src_0x55df28b37600&#45;&gt;decklinkvideosink0_0x55df28b8a350_sink_0x55df28b36cc0 -->
<g id="edge2" class="edge">
<title>capsfilter0_0x55df28b980e0_src_0x55df28b37600&#45;&gt;decklinkvideosink0_0x55df28b8a350_sink_0x55df28b36cc0</title>
<path fill="none" stroke="black" d="M1701.21,-92C1776.33,-92 1992.57,-92 2078.83,-92"/>
<polygon fill="black" stroke="black" points="2078.93,-95.5 2088.93,-92 2078.93,-88.5 2078.93,-95.5"/>
<text text-anchor="start" x="1832" y="-174.8" font-family="monospace" font-size="9.00">video/x&#45;raw</text>
<text text-anchor="start" x="1832" y="-164.8" font-family="monospace" font-size="9.00"> &#160;&#160;&#160;&#160;&#160;&#160;&#160;&#160;&#160;&#160;&#160;&#160;&#160;&#160;width: 1920</text>
<text text-anchor="start" x="1832" y="-154.8" font-family="monospace" font-size="9.00"> &#160;&#160;&#160;&#160;&#160;&#160;&#160;&#160;&#160;&#160;&#160;&#160;&#160;height: 1080</text>
<text text-anchor="start" x="1832" y="-144.8" font-family="monospace" font-size="9.00"> &#160;pixel&#45;aspect&#45;ratio: 1/1</text>
<text text-anchor="start" x="1832" y="-134.8" font-family="monospace" font-size="9.00"> &#160;&#160;&#160;&#160;&#160;interlace&#45;mode: progressive</text>
<text text-anchor="start" x="1832" y="-124.8" font-family="monospace" font-size="9.00"> &#160;&#160;&#160;&#160;&#160;&#160;&#160;&#160;&#160;&#160;framerate: 60000/1001</text>
<text text-anchor="start" x="1832" y="-114.8" font-family="monospace" font-size="9.00"> &#160;&#160;&#160;&#160;&#160;&#160;&#160;&#160;&#160;&#160;&#160;&#160;&#160;format: UYVY</text>
<text text-anchor="start" x="1832" y="-104.8" font-family="monospace" font-size="9.00"> &#160;&#160;&#160;&#160;&#160;&#160;&#160;&#160;colorimetry: bt709</text>
<text text-anchor="start" x="1832" y="-94.8" font-family="monospace" font-size="9.00"> &#160;&#160;&#160;&#160;&#160;&#160;&#160;&#160;chroma&#45;site: mpeg2</text>
</g>
<!-- decklinkaudiosink0_0x55df28b8c620_sink_0x55df28b37160 -->
<g id="node5" class="node">
<title>decklinkaudiosink0_0x55df28b8c620_sink_0x55df28b37160</title>
<polygon fill="#aaaaff" stroke="black" points="715,-233 661,-233 661,-213 715,-213 715,-233"/>
<text text-anchor="middle" x="688" y="-225.8" font-family="sans" font-size="9.00">sink</text>
<text text-anchor="middle" x="688" y="-215.8" font-family="sans" font-size="9.00">[&gt;][bfb]</text>
</g>
<!-- decklinkaudiosrc0_0x55df28b8b3f0_src_0x55df28b36f10 -->
<g id="node6" class="node">
<title>decklinkaudiosrc0_0x55df28b8b3f0_src_0x55df28b36f10</title>
<polygon fill="#ffaaaa" stroke="black" points="206.5,-233 152.5,-233 152.5,-213 206.5,-213 206.5,-233"/>
<text text-anchor="middle" x="179.5" y="-225.8" font-family="sans" font-size="9.00">src</text>
<text text-anchor="middle" x="179.5" y="-215.8" font-family="sans" font-size="9.00">[&gt;][bfb][T]</text>
</g>
<!-- decklinkaudiosrc0_0x55df28b8b3f0_src_0x55df28b36f10&#45;&gt;decklinkaudiosink0_0x55df28b8c620_sink_0x55df28b37160 -->
<g id="edge3" class="edge">
<title>decklinkaudiosrc0_0x55df28b8b3f0_src_0x55df28b36f10&#45;&gt;decklinkaudiosink0_0x55df28b8c620_sink_0x55df28b37160</title>
<path fill="none" stroke="black" d="M206.67,-223C290.72,-223 554.02,-223 650.82,-223"/>
<polygon fill="black" stroke="black" points="650.99,-226.5 660.99,-223 650.99,-219.5 650.99,-226.5"/>
<text text-anchor="start" x="367" y="-275.8" font-family="monospace" font-size="9.00">audio/x&#45;raw</text>
<text text-anchor="start" x="367" y="-265.8" font-family="monospace" font-size="9.00"> &#160;&#160;&#160;&#160;&#160;&#160;&#160;&#160;&#160;&#160;&#160;&#160;&#160;format: S32LE</text>
<text text-anchor="start" x="367" y="-255.8" font-family="monospace" font-size="9.00"> &#160;&#160;&#160;&#160;&#160;&#160;&#160;&#160;&#160;&#160;&#160;&#160;&#160;layout: interleaved</text>
<text text-anchor="start" x="367" y="-245.8" font-family="monospace" font-size="9.00"> &#160;&#160;&#160;&#160;&#160;&#160;&#160;&#160;&#160;&#160;&#160;&#160;&#160;&#160;&#160;rate: 48000</text>
<text text-anchor="start" x="367" y="-235.8" font-family="monospace" font-size="9.00"> &#160;&#160;&#160;&#160;&#160;&#160;&#160;&#160;&#160;&#160;&#160;channels: 2</text>
<text text-anchor="start" x="367" y="-225.8" font-family="monospace" font-size="9.00"> &#160;&#160;&#160;&#160;&#160;&#160;&#160;channel&#45;mask: 0x0000000000000003</text>
</g>
<!-- videoconvert0_0x55df28b5d7e0_sink_0x55df28b36820 -->
<g id="node7" class="node">
<title>videoconvert0_0x55df28b5d7e0_sink_0x55df28b36820</title>
<polygon fill="#aaaaff" stroke="black" points="1145,-102 1091,-102 1091,-82 1145,-82 1145,-102"/>
<text text-anchor="middle" x="1118" y="-94.8" font-family="sans" font-size="9.00">sink</text>
<text text-anchor="middle" x="1118" y="-84.8" font-family="sans" font-size="9.00">[&gt;][bfb]</text>
</g>
<!-- videoconvert0_0x55df28b5d7e0_src_0x55df28b36a70 -->
<g id="node8" class="node">
<title>videoconvert0_0x55df28b5d7e0_src_0x55df28b36a70</title>
<polygon fill="#ffaaaa" stroke="black" points="1232,-102 1178,-102 1178,-82 1232,-82 1232,-102"/>
<text text-anchor="middle" x="1205" y="-94.8" font-family="sans" font-size="9.00">src</text>
<text text-anchor="middle" x="1205" y="-84.8" font-family="sans" font-size="9.00">[&gt;][bfb]</text>
</g>
<!-- videoconvert0_0x55df28b5d7e0_sink_0x55df28b36820&#45;&gt;videoconvert0_0x55df28b5d7e0_src_0x55df28b36a70 -->
<!-- videoconvert0_0x55df28b5d7e0_src_0x55df28b36a70&#45;&gt;capsfilter0_0x55df28b980e0_sink_0x55df28b373b0 -->
<g id="edge5" class="edge">
<title>videoconvert0_0x55df28b5d7e0_src_0x55df28b36a70&#45;&gt;capsfilter0_0x55df28b980e0_sink_0x55df28b373b0</title>
<path fill="none" stroke="black" d="M1232.12,-92C1298.5,-92 1473.79,-92 1549.89,-92"/>
<polygon fill="black" stroke="black" points="1549.95,-95.5 1559.95,-92 1549.95,-88.5 1549.95,-95.5"/>
<text text-anchor="start" x="1256" y="-174.8" font-family="monospace" font-size="9.00">video/x&#45;raw</text>
<text text-anchor="start" x="1256" y="-164.8" font-family="monospace" font-size="9.00"> &#160;&#160;&#160;&#160;&#160;&#160;&#160;&#160;&#160;&#160;&#160;&#160;&#160;&#160;width: 1920</text>
<text text-anchor="start" x="1256" y="-154.8" font-family="monospace" font-size="9.00"> &#160;&#160;&#160;&#160;&#160;&#160;&#160;&#160;&#160;&#160;&#160;&#160;&#160;height: 1080</text>
<text text-anchor="start" x="1256" y="-144.8" font-family="monospace" font-size="9.00"> &#160;pixel&#45;aspect&#45;ratio: 1/1</text>
<text text-anchor="start" x="1256" y="-134.8" font-family="monospace" font-size="9.00"> &#160;&#160;&#160;&#160;&#160;interlace&#45;mode: progressive</text>
<text text-anchor="start" x="1256" y="-124.8" font-family="monospace" font-size="9.00"> &#160;&#160;&#160;&#160;&#160;&#160;&#160;&#160;&#160;&#160;framerate: 60000/1001</text>
<text text-anchor="start" x="1256" y="-114.8" font-family="monospace" font-size="9.00"> &#160;&#160;&#160;&#160;&#160;&#160;&#160;&#160;&#160;&#160;&#160;&#160;&#160;format: UYVY</text>
<text text-anchor="start" x="1256" y="-104.8" font-family="monospace" font-size="9.00"> &#160;&#160;&#160;&#160;&#160;&#160;&#160;&#160;colorimetry: bt709</text>
<text text-anchor="start" x="1256" y="-94.8" font-family="monospace" font-size="9.00"> &#160;&#160;&#160;&#160;&#160;&#160;&#160;&#160;chroma&#45;site: mpeg2</text>
</g>
<!-- deinterlace0_0x55df28b58870_sink_0x55df28b36380 -->
<g id="node9" class="node">
<title>deinterlace0_0x55df28b58870_sink_0x55df28b36380</title>
<polygon fill="#aaaaff" stroke="black" points="715,-102 661,-102 661,-82 715,-82 715,-102"/>
<text text-anchor="middle" x="688" y="-94.8" font-family="sans" font-size="9.00">sink</text>
<text text-anchor="middle" x="688" y="-84.8" font-family="sans" font-size="9.00">[&gt;][bfb]</text>
</g>
<!-- deinterlace0_0x55df28b58870_src_0x55df28b365d0 -->
<g id="node10" class="node">
<title>deinterlace0_0x55df28b58870_src_0x55df28b365d0</title>
<polygon fill="#ffaaaa" stroke="black" points="869,-102 815,-102 815,-82 869,-82 869,-102"/>
<text text-anchor="middle" x="842" y="-94.8" font-family="sans" font-size="9.00">src</text>
<text text-anchor="middle" x="842" y="-84.8" font-family="sans" font-size="9.00">[&gt;][bfb]</text>
</g>
<!-- deinterlace0_0x55df28b58870_sink_0x55df28b36380&#45;&gt;deinterlace0_0x55df28b58870_src_0x55df28b365d0 -->
<!-- deinterlace0_0x55df28b58870_src_0x55df28b365d0&#45;&gt;videoconvert0_0x55df28b5d7e0_sink_0x55df28b36820 -->
<g id="edge7" class="edge">
<title>deinterlace0_0x55df28b58870_src_0x55df28b365d0&#45;&gt;videoconvert0_0x55df28b5d7e0_sink_0x55df28b36820</title>
<path fill="none" stroke="black" d="M869.27,-92C918.47,-92 1024.59,-92 1080.62,-92"/>
<polygon fill="black" stroke="black" points="1080.81,-95.5 1090.81,-92 1080.81,-88.5 1080.81,-95.5"/>
<text text-anchor="start" x="893" y="-174.8" font-family="monospace" font-size="9.00">video/x&#45;raw</text>
<text text-anchor="start" x="893" y="-164.8" font-family="monospace" font-size="9.00"> &#160;&#160;&#160;&#160;&#160;&#160;&#160;&#160;&#160;&#160;&#160;&#160;&#160;&#160;width: 1920</text>
<text text-anchor="start" x="893" y="-154.8" font-family="monospace" font-size="9.00"> &#160;&#160;&#160;&#160;&#160;&#160;&#160;&#160;&#160;&#160;&#160;&#160;&#160;height: 1080</text>
<text text-anchor="start" x="893" y="-144.8" font-family="monospace" font-size="9.00"> &#160;pixel&#45;aspect&#45;ratio: 1/1</text>
<text text-anchor="start" x="893" y="-134.8" font-family="monospace" font-size="9.00"> &#160;&#160;&#160;&#160;&#160;interlace&#45;mode: progressive</text>
<text text-anchor="start" x="893" y="-124.8" font-family="monospace" font-size="9.00"> &#160;&#160;&#160;&#160;&#160;&#160;&#160;&#160;&#160;&#160;framerate: 60000/1001</text>
<text text-anchor="start" x="893" y="-114.8" font-family="monospace" font-size="9.00"> &#160;&#160;&#160;&#160;&#160;&#160;&#160;&#160;&#160;&#160;&#160;&#160;&#160;format: UYVY</text>
<text text-anchor="start" x="893" y="-104.8" font-family="monospace" font-size="9.00"> &#160;&#160;&#160;&#160;&#160;&#160;&#160;&#160;colorimetry: bt709</text>
<text text-anchor="start" x="893" y="-94.8" font-family="monospace" font-size="9.00"> &#160;&#160;&#160;&#160;&#160;&#160;&#160;&#160;chroma&#45;site: mpeg2</text>
</g>
<!-- decklinkvideosrc0_0x55df28b346e0_src_0x55df28b36130 -->
<g id="node11" class="node">
<title>decklinkvideosrc0_0x55df28b346e0_src_0x55df28b36130</title>
<polygon fill="#ffaaaa" stroke="black" points="206.5,-102 152.5,-102 152.5,-82 206.5,-82 206.5,-102"/>
<text text-anchor="middle" x="179.5" y="-94.8" font-family="sans" font-size="9.00">src</text>
<text text-anchor="middle" x="179.5" y="-84.8" font-family="sans" font-size="9.00">[&gt;][bfb][T]</text>
</g>
<!-- decklinkvideosrc0_0x55df28b346e0_src_0x55df28b36130&#45;&gt;deinterlace0_0x55df28b58870_sink_0x55df28b36380 -->
<g id="edge8" class="edge">
<title>decklinkvideosrc0_0x55df28b346e0_src_0x55df28b36130&#45;&gt;deinterlace0_0x55df28b58870_sink_0x55df28b36380</title>
<path fill="none" stroke="black" d="M206.67,-92C290.72,-92 554.02,-92 650.82,-92"/>
<polygon fill="black" stroke="black" points="650.99,-95.5 660.99,-92 650.99,-88.5 650.99,-95.5"/>
<text text-anchor="start" x="375" y="-184.8" font-family="monospace" font-size="9.00">video/x&#45;raw</text>
<text text-anchor="start" x="375" y="-174.8" font-family="monospace" font-size="9.00"> &#160;&#160;&#160;&#160;&#160;&#160;&#160;&#160;&#160;&#160;&#160;&#160;&#160;&#160;width: 1920</text>
<text text-anchor="start" x="375" y="-164.8" font-family="monospace" font-size="9.00"> &#160;&#160;&#160;&#160;&#160;&#160;&#160;&#160;&#160;&#160;&#160;&#160;&#160;height: 1080</text>
<text text-anchor="start" x="375" y="-154.8" font-family="monospace" font-size="9.00"> &#160;pixel&#45;aspect&#45;ratio: 1/1</text>
<text text-anchor="start" x="375" y="-144.8" font-family="monospace" font-size="9.00"> &#160;&#160;&#160;&#160;&#160;interlace&#45;mode: interleaved</text>
<text text-anchor="start" x="375" y="-134.8" font-family="monospace" font-size="9.00"> &#160;&#160;&#160;&#160;&#160;&#160;&#160;&#160;&#160;&#160;framerate: 30000/1001</text>
<text text-anchor="start" x="375" y="-124.8" font-family="monospace" font-size="9.00"> &#160;&#160;&#160;&#160;&#160;&#160;&#160;&#160;field&#45;order: top&#45;field&#45;first</text>
<text text-anchor="start" x="375" y="-114.8" font-family="monospace" font-size="9.00"> &#160;&#160;&#160;&#160;&#160;&#160;&#160;&#160;&#160;&#160;&#160;&#160;&#160;format: UYVY</text>
<text text-anchor="start" x="375" y="-104.8" font-family="monospace" font-size="9.00"> &#160;&#160;&#160;&#160;&#160;&#160;&#160;&#160;colorimetry: bt709</text>
<text text-anchor="start" x="375" y="-94.8" font-family="monospace" font-size="9.00"> &#160;&#160;&#160;&#160;&#160;&#160;&#160;&#160;chroma&#45;site: mpeg2</text>
</g>
</g>
</svg>
