<?xml version="1.0" encoding="UTF-8" standalone="no"?>
<!DOCTYPE svg PUBLIC "-//W3C//DTD SVG 1.1//EN"
 "http://www.w3.org/Graphics/SVG/1.1/DTD/svg11.dtd">
<!-- Generated by graphviz version 2.43.0 (0)
 -->
<!-- Title: pipeline Pages: 1 -->
<svg width="2956pt" height="377pt"
 viewBox="0.00 0.00 2956.00 377.00" xmlns="http://www.w3.org/2000/svg" xmlns:xlink="http://www.w3.org/1999/xlink">
<g id="graph0" class="graph" transform="scale(1 1) rotate(0) translate(4 373)">
<title>pipeline</title>
<polygon fill="white" stroke="transparent" points="-4,4 -4,-373 2952,-373 2952,4 -4,4"/>
<text text-anchor="middle" x="1474" y="-357" font-family="sans" font-size="10.00">&lt;GstPipeline&gt;</text>
<text text-anchor="middle" x="1474" y="-346" font-family="sans" font-size="10.00">pipeline0</text>
<text text-anchor="middle" x="1474" y="-335" font-family="sans" font-size="10.00">[=] &#45;&gt; [0]</text>
<g id="clust1" class="cluster">
<title>cluster_decklinkaudiosink0_0x5651ae80ea90</title>
<path fill="#aaaaff" stroke="black" d="M598,-66C598,-66 780,-66 780,-66 786,-66 792,-72 792,-78 792,-78 792,-168 792,-168 792,-174 786,-180 780,-180 780,-180 598,-180 598,-180 592,-180 586,-174 586,-168 586,-168 586,-78 586,-78 586,-72 592,-66 598,-66"/>
<text text-anchor="middle" x="689" y="-169.6" font-family="Bitstream Vera Sans" font-size="8.00">GstDecklinkAudioSink</text>
<text text-anchor="middle" x="689" y="-160.6" font-family="Bitstream Vera Sans" font-size="8.00">decklinkaudiosink0</text>
<text text-anchor="middle" x="689" y="-151.6" font-family="Bitstream Vera Sans" font-size="8.00">[=]</text>
<text text-anchor="middle" x="689" y="-142.6" font-family="Bitstream Vera Sans" font-size="8.00">max&#45;lateness=20000000</text>
<text text-anchor="middle" x="689" y="-133.6" font-family="Bitstream Vera Sans" font-size="8.00">last&#45;sample=((GstSample*) 0x5651ae796430)</text>
<text text-anchor="middle" x="689" y="-124.6" font-family="Bitstream Vera Sans" font-size="8.00">hw&#45;serial&#45;number=&quot;&quot;</text>
</g>
<g id="clust2" class="cluster">
<title>cluster_decklinkaudiosink0_0x5651ae80ea90_sink</title>
</g>
<g id="clust3" class="cluster">
<title>cluster_decklinkaudiosrc0_0x5651ae80ad60</title>
<path fill="#ffaaaa" stroke="black" d="M140.5,-66C140.5,-66 219.5,-66 219.5,-66 225.5,-66 231.5,-72 231.5,-78 231.5,-78 231.5,-159 231.5,-159 231.5,-165 225.5,-171 219.5,-171 219.5,-171 140.5,-171 140.5,-171 134.5,-171 128.5,-165 128.5,-159 128.5,-159 128.5,-78 128.5,-78 128.5,-72 134.5,-66 140.5,-66"/>
<text text-anchor="middle" x="180" y="-160.6" font-family="Bitstream Vera Sans" font-size="8.00">GstDecklinkAudioSrc</text>
<text text-anchor="middle" x="180" y="-151.6" font-family="Bitstream Vera Sans" font-size="8.00">decklinkaudiosrc0</text>
<text text-anchor="middle" x="180" y="-142.6" font-family="Bitstream Vera Sans" font-size="8.00">[=]</text>
<text text-anchor="middle" x="180" y="-133.6" font-family="Bitstream Vera Sans" font-size="8.00">device&#45;number=1</text>
<text text-anchor="middle" x="180" y="-124.6" font-family="Bitstream Vera Sans" font-size="8.00">hw&#45;serial&#45;number=&quot;&quot;</text>
</g>
<g id="clust4" class="cluster">
<title>cluster_decklinkaudiosrc0_0x5651ae80ad60_src</title>
</g>
<g id="clust5" class="cluster">
<title>cluster_decklinkvideosink0_0x5651ae8094d0</title>
<path fill="#aaaaff" stroke="black" d="M2754,-188C2754,-188 2936,-188 2936,-188 2942,-188 2948,-194 2948,-200 2948,-200 2948,-308 2948,-308 2948,-314 2942,-320 2936,-320 2936,-320 2754,-320 2754,-320 2748,-320 2742,-314 2742,-308 2742,-308 2742,-200 2742,-200 2742,-194 2748,-188 2754,-188"/>
<text text-anchor="middle" x="2845" y="-309.6" font-family="Bitstream Vera Sans" font-size="8.00">GstDecklinkVideoSink</text>
<text text-anchor="middle" x="2845" y="-300.6" font-family="Bitstream Vera Sans" font-size="8.00">decklinkvideosink0</text>
<text text-anchor="middle" x="2845" y="-291.6" font-family="Bitstream Vera Sans" font-size="8.00">[&gt;] &#45;&gt; [=]</text>
<text text-anchor="middle" x="2845" y="-282.6" font-family="Bitstream Vera Sans" font-size="8.00">max&#45;lateness=20000000</text>
<text text-anchor="middle" x="2845" y="-273.6" font-family="Bitstream Vera Sans" font-size="8.00">qos=TRUE</text>
<text text-anchor="middle" x="2845" y="-264.6" font-family="Bitstream Vera Sans" font-size="8.00">last&#45;sample=((GstSample*) 0x5651ae796510)</text>
<text text-anchor="middle" x="2845" y="-255.6" font-family="Bitstream Vera Sans" font-size="8.00">mode=1080p5994</text>
<text text-anchor="middle" x="2845" y="-246.6" font-family="Bitstream Vera Sans" font-size="8.00">hw&#45;serial&#45;number=&quot;&quot;</text>
</g>
<g id="clust6" class="cluster">
<title>cluster_decklinkvideosink0_0x5651ae8094d0_sink</title>
</g>
<g id="clust7" class="cluster">
<title>cluster_videoconvert1_0x5651ae6250c0</title>
<path fill="#aaffaa" stroke="black" d="M2391,-188C2391,-188 2540,-188 2540,-188 2546,-188 2552,-194 2552,-200 2552,-200 2552,-272 2552,-272 2552,-278 2546,-284 2540,-284 2540,-284 2391,-284 2391,-284 2385,-284 2379,-278 2379,-272 2379,-272 2379,-200 2379,-200 2379,-194 2385,-188 2391,-188"/>
<text text-anchor="middle" x="2465.5" y="-273.6" font-family="Bitstream Vera Sans" font-size="8.00">GstVideoConvert</text>
<text text-anchor="middle" x="2465.5" y="-264.6" font-family="Bitstream Vera Sans" font-size="8.00">videoconvert1</text>
<text text-anchor="middle" x="2465.5" y="-255.6" font-family="Bitstream Vera Sans" font-size="8.00">[=]</text>
<text text-anchor="middle" x="2465.5" y="-246.6" font-family="Bitstream Vera Sans" font-size="8.00">qos=TRUE</text>
</g>
<g id="clust8" class="cluster">
<title>cluster_videoconvert1_0x5651ae6250c0_sink</title>
</g>
<g id="clust9" class="cluster">
<title>cluster_videoconvert1_0x5651ae6250c0_src</title>
</g>
<g id="clust10" class="cluster">
<title>cluster_capsfilter0_0x5651ae7ec250</title>
<path fill="#aaffaa" stroke="black" d="M1815,-188C1815,-188 2177,-188 2177,-188 2183,-188 2189,-194 2189,-200 2189,-200 2189,-272 2189,-272 2189,-278 2183,-284 2177,-284 2177,-284 1815,-284 1815,-284 1809,-284 1803,-278 1803,-272 1803,-272 1803,-200 1803,-200 1803,-194 1809,-188 1815,-188"/>
<text text-anchor="middle" x="1996" y="-273.6" font-family="Bitstream Vera Sans" font-size="8.00">GstCapsFilter</text>
<text text-anchor="middle" x="1996" y="-264.6" font-family="Bitstream Vera Sans" font-size="8.00">capsfilter0</text>
<text text-anchor="middle" x="1996" y="-255.6" font-family="Bitstream Vera Sans" font-size="8.00">[=]</text>
<text text-anchor="middle" x="1996" y="-246.6" font-family="Bitstream Vera Sans" font-size="8.00">caps=video/x&#45;raw, format=(string)BGR, width=(int)1920, height=(int)1080, interlace&#45;mo…</text>
</g>
<g id="clust11" class="cluster">
<title>cluster_capsfilter0_0x5651ae7ec250_sink</title>
</g>
<g id="clust12" class="cluster">
<title>cluster_capsfilter0_0x5651ae7ec250_src</title>
</g>
<g id="clust13" class="cluster">
<title>cluster_videoconvert0_0x5651ae6243c0</title>
<path fill="#aaffaa" stroke="black" d="M1452,-188C1452,-188 1601,-188 1601,-188 1607,-188 1613,-194 1613,-200 1613,-200 1613,-272 1613,-272 1613,-278 1607,-284 1601,-284 1601,-284 1452,-284 1452,-284 1446,-284 1440,-278 1440,-272 1440,-272 1440,-200 1440,-200 1440,-194 1446,-188 1452,-188"/>
<text text-anchor="middle" x="1526.5" y="-273.6" font-family="Bitstream Vera Sans" font-size="8.00">GstVideoConvert</text>
<text text-anchor="middle" x="1526.5" y="-264.6" font-family="Bitstream Vera Sans" font-size="8.00">videoconvert0</text>
<text text-anchor="middle" x="1526.5" y="-255.6" font-family="Bitstream Vera Sans" font-size="8.00">[=]</text>
<text text-anchor="middle" x="1526.5" y="-246.6" font-family="Bitstream Vera Sans" font-size="8.00">qos=TRUE</text>
</g>
<g id="clust14" class="cluster">
<title>cluster_videoconvert0_0x5651ae6243c0_sink</title>
</g>
<g id="clust15" class="cluster">
<title>cluster_videoconvert0_0x5651ae6243c0_src</title>
</g>
<g id="clust16" class="cluster">
<title>cluster_queue0_0x5651ae7de050</title>
<path fill="#aaffaa" stroke="black" d="M1089,-188C1089,-188 1238,-188 1238,-188 1244,-188 1250,-194 1250,-200 1250,-200 1250,-290 1250,-290 1250,-296 1244,-302 1238,-302 1238,-302 1089,-302 1089,-302 1083,-302 1077,-296 1077,-290 1077,-290 1077,-200 1077,-200 1077,-194 1083,-188 1089,-188"/>
<text text-anchor="middle" x="1163.5" y="-291.6" font-family="Bitstream Vera Sans" font-size="8.00">GstQueue</text>
<text text-anchor="middle" x="1163.5" y="-282.6" font-family="Bitstream Vera Sans" font-size="8.00">queue0</text>
<text text-anchor="middle" x="1163.5" y="-273.6" font-family="Bitstream Vera Sans" font-size="8.00">[=]</text>
<text text-anchor="middle" x="1163.5" y="-264.6" font-family="Bitstream Vera Sans" font-size="8.00">current&#45;level&#45;buffers=3</text>
<text text-anchor="middle" x="1163.5" y="-255.6" font-family="Bitstream Vera Sans" font-size="8.00">current&#45;level&#45;bytes=12441600</text>
<text text-anchor="middle" x="1163.5" y="-246.6" font-family="Bitstream Vera Sans" font-size="8.00">current&#45;level&#45;time=50050001</text>
</g>
<g id="clust17" class="cluster">
<title>cluster_queue0_0x5651ae7de050_sink</title>
</g>
<g id="clust18" class="cluster">
<title>cluster_queue0_0x5651ae7de050_src</title>
</g>
<g id="clust19" class="cluster">
<title>cluster_deinterlace0_0x5651ae7ca570</title>
<path fill="#aaffaa" stroke="black" d="M658,-188C658,-188 875,-188 875,-188 881,-188 887,-194 887,-200 887,-200 887,-263 887,-263 887,-269 881,-275 875,-275 875,-275 658,-275 658,-275 652,-275 646,-269 646,-263 646,-263 646,-200 646,-200 646,-194 652,-188 658,-188"/>
<text text-anchor="middle" x="766.5" y="-264.6" font-family="Bitstream Vera Sans" font-size="8.00">GstDeinterlace</text>
<text text-anchor="middle" x="766.5" y="-255.6" font-family="Bitstream Vera Sans" font-size="8.00">deinterlace0</text>
<text text-anchor="middle" x="766.5" y="-246.6" font-family="Bitstream Vera Sans" font-size="8.00">[=]</text>
</g>
<g id="clust20" class="cluster">
<title>cluster_deinterlace0_0x5651ae7ca570_sink</title>
</g>
<g id="clust21" class="cluster">
<title>cluster_deinterlace0_0x5651ae7ca570_src</title>
</g>
<g id="clust22" class="cluster">
<title>cluster_decklinkvideosrc0_0x5651ae7a62e0</title>
<path fill="#ffaaaa" stroke="black" d="M140.5,-188C140.5,-188 219.5,-188 219.5,-188 225.5,-188 231.5,-194 231.5,-200 231.5,-200 231.5,-299 231.5,-299 231.5,-305 225.5,-311 219.5,-311 219.5,-311 140.5,-311 140.5,-311 134.5,-311 128.5,-305 128.5,-299 128.5,-299 128.5,-200 128.5,-200 128.5,-194 134.5,-188 140.5,-188"/>
<text text-anchor="middle" x="180" y="-300.6" font-family="Bitstream Vera Sans" font-size="8.00">GstDecklinkVideoSrc</text>
<text text-anchor="middle" x="180" y="-291.6" font-family="Bitstream Vera Sans" font-size="8.00">decklinkvideosrc0</text>
<text text-anchor="middle" x="180" y="-282.6" font-family="Bitstream Vera Sans" font-size="8.00">[=]</text>
<text text-anchor="middle" x="180" y="-273.6" font-family="Bitstream Vera Sans" font-size="8.00">mode=1080i5994</text>
<text text-anchor="middle" x="180" y="-264.6" font-family="Bitstream Vera Sans" font-size="8.00">device&#45;number=1</text>
<text text-anchor="middle" x="180" y="-255.6" font-family="Bitstream Vera Sans" font-size="8.00">signal=TRUE</text>
<text text-anchor="middle" x="180" y="-246.6" font-family="Bitstream Vera Sans" font-size="8.00">hw&#45;serial&#45;number=&quot;&quot;</text>
</g>
<g id="clust23" class="cluster">
<title>cluster_decklinkvideosrc0_0x5651ae7a62e0_src</title>
</g>
<!-- legend -->
<g id="node1" class="node">
<title>legend</title>
<polygon fill="lightgrey" stroke="black" points="359,-58 0,-58 0,0 359,0 359,-58"/>
<text text-anchor="start" x="4" y="-46.8" font-family="sans" font-size="9.00">Legend</text>
<text text-anchor="start" x="4" y="-36.8" font-family="sans" font-size="9.00">Element&#45;States: [~] void&#45;pending, [0] null, [&#45;] ready, [=] paused, [&gt;] playing</text>
<text text-anchor="start" x="4" y="-26.8" font-family="sans" font-size="9.00">Pad&#45;Activation: [&#45;] none, [&gt;] push, [&lt;] pull</text>
<text text-anchor="start" x="4" y="-16.8" font-family="sans" font-size="9.00">Pad&#45;Flags: [b]locked, [f]lushing, [b]locking, [E]OS; upper&#45;case is set</text>
<text text-anchor="start" x="4" y="-6.8" font-family="sans" font-size="9.00">Pad&#45;Task: [T] has started task, [t] has paused task</text>
</g>
<!-- decklinkaudiosink0_0x5651ae80ea90_sink_0x5651ae80c040 -->
<g id="node2" class="node">
<title>decklinkaudiosink0_0x5651ae80ea90_sink_0x5651ae80c040</title>
<polygon fill="#aaaaff" stroke="black" points="716,-102 662,-102 662,-82 716,-82 716,-102"/>
<text text-anchor="middle" x="689" y="-94.8" font-family="sans" font-size="9.00">sink</text>
<text text-anchor="middle" x="689" y="-84.8" font-family="sans" font-size="9.00">[&gt;][bfb]</text>
</g>
<!-- decklinkaudiosrc0_0x5651ae80ad60_src_0x5651ae7a9cf0 -->
<g id="node3" class="node">
<title>decklinkaudiosrc0_0x5651ae80ad60_src_0x5651ae7a9cf0</title>
<polygon fill="#ffaaaa" stroke="black" points="206.5,-102 152.5,-102 152.5,-82 206.5,-82 206.5,-102"/>
<text text-anchor="middle" x="179.5" y="-94.8" font-family="sans" font-size="9.00">src</text>
<text text-anchor="middle" x="179.5" y="-84.8" font-family="sans" font-size="9.00">[&gt;][bfb][T]</text>
</g>
<!-- decklinkaudiosrc0_0x5651ae80ad60_src_0x5651ae7a9cf0&#45;&gt;decklinkaudiosink0_0x5651ae80ea90_sink_0x5651ae80c040 -->
<g id="edge1" class="edge">
<title>decklinkaudiosrc0_0x5651ae80ad60_src_0x5651ae7a9cf0&#45;&gt;decklinkaudiosink0_0x5651ae80ea90_sink_0x5651ae80c040</title>
<path fill="none" stroke="black" d="M206.72,-92C290.94,-92 554.76,-92 651.75,-92"/>
<polygon fill="black" stroke="black" points="651.94,-95.5 661.94,-92 651.94,-88.5 651.94,-95.5"/>
<text text-anchor="start" x="367" y="-144.8" font-family="monospace" font-size="9.00">audio/x&#45;raw</text>
<text text-anchor="start" x="367" y="-134.8" font-family="monospace" font-size="9.00"> &#160;&#160;&#160;&#160;&#160;&#160;&#160;&#160;&#160;&#160;&#160;&#160;&#160;format: S32LE</text>
<text text-anchor="start" x="367" y="-124.8" font-family="monospace" font-size="9.00"> &#160;&#160;&#160;&#160;&#160;&#160;&#160;&#160;&#160;&#160;&#160;&#160;&#160;layout: interleaved</text>
<text text-anchor="start" x="367" y="-114.8" font-family="monospace" font-size="9.00"> &#160;&#160;&#160;&#160;&#160;&#160;&#160;&#160;&#160;&#160;&#160;&#160;&#160;&#160;&#160;rate: 48000</text>
<text text-anchor="start" x="367" y="-104.8" font-family="monospace" font-size="9.00"> &#160;&#160;&#160;&#160;&#160;&#160;&#160;&#160;&#160;&#160;&#160;channels: 2</text>
<text text-anchor="start" x="367" y="-94.8" font-family="monospace" font-size="9.00"> &#160;&#160;&#160;&#160;&#160;&#160;&#160;channel&#45;mask: 0x0000000000000003</text>
</g>
<!-- decklinkvideosink0_0x5651ae8094d0_sink_0x5651ae7a9aa0 -->
<g id="node4" class="node">
<title>decklinkvideosink0_0x5651ae8094d0_sink_0x5651ae7a9aa0</title>
<polygon fill="#aaaaff" stroke="black" points="2872,-224 2818,-224 2818,-204 2872,-204 2872,-224"/>
<text text-anchor="middle" x="2845" y="-216.8" font-family="sans" font-size="9.00">sink</text>
<text text-anchor="middle" x="2845" y="-206.8" font-family="sans" font-size="9.00">[&gt;][bfb]</text>
</g>
<!-- videoconvert1_0x5651ae6250c0_sink_0x5651ae7a9600 -->
<g id="node5" class="node">
<title>videoconvert1_0x5651ae6250c0_sink_0x5651ae7a9600</title>
<polygon fill="#aaaaff" stroke="black" points="2449,-224 2395,-224 2395,-204 2449,-204 2449,-224"/>
<text text-anchor="middle" x="2422" y="-216.8" font-family="sans" font-size="9.00">sink</text>
<text text-anchor="middle" x="2422" y="-206.8" font-family="sans" font-size="9.00">[&gt;][bfb]</text>
</g>
<!-- videoconvert1_0x5651ae6250c0_src_0x5651ae7a9850 -->
<g id="node6" class="node">
<title>videoconvert1_0x5651ae6250c0_src_0x5651ae7a9850</title>
<polygon fill="#ffaaaa" stroke="black" points="2536,-224 2482,-224 2482,-204 2536,-204 2536,-224"/>
<text text-anchor="middle" x="2509" y="-216.8" font-family="sans" font-size="9.00">src</text>
<text text-anchor="middle" x="2509" y="-206.8" font-family="sans" font-size="9.00">[&gt;][bfb]</text>
</g>
<!-- videoconvert1_0x5651ae6250c0_sink_0x5651ae7a9600&#45;&gt;videoconvert1_0x5651ae6250c0_src_0x5651ae7a9850 -->
<!-- videoconvert1_0x5651ae6250c0_src_0x5651ae7a9850&#45;&gt;decklinkvideosink0_0x5651ae8094d0_sink_0x5651ae7a9aa0 -->
<g id="edge3" class="edge">
<title>videoconvert1_0x5651ae6250c0_src_0x5651ae7a9850&#45;&gt;decklinkvideosink0_0x5651ae8094d0_sink_0x5651ae7a9aa0</title>
<path fill="none" stroke="black" d="M2536.21,-214C2595.47,-214 2739.9,-214 2807.71,-214"/>
<polygon fill="black" stroke="black" points="2807.91,-217.5 2817.91,-214 2807.91,-210.5 2807.91,-217.5"/>
<text text-anchor="start" x="2560" y="-296.8" font-family="monospace" font-size="9.00">video/x&#45;raw</text>
<text text-anchor="start" x="2560" y="-286.8" font-family="monospace" font-size="9.00"> &#160;&#160;&#160;&#160;&#160;&#160;&#160;&#160;&#160;&#160;&#160;&#160;&#160;&#160;width: 1920</text>
<text text-anchor="start" x="2560" y="-276.8" font-family="monospace" font-size="9.00"> &#160;&#160;&#160;&#160;&#160;&#160;&#160;&#160;&#160;&#160;&#160;&#160;&#160;height: 1080</text>
<text text-anchor="start" x="2560" y="-266.8" font-family="monospace" font-size="9.00"> &#160;pixel&#45;aspect&#45;ratio: 1/1</text>
<text text-anchor="start" x="2560" y="-256.8" font-family="monospace" font-size="9.00"> &#160;&#160;&#160;&#160;&#160;interlace&#45;mode: progressive</text>
<text text-anchor="start" x="2560" y="-246.8" font-family="monospace" font-size="9.00"> &#160;&#160;&#160;&#160;&#160;&#160;&#160;&#160;&#160;&#160;framerate: 60000/1001</text>
<text text-anchor="start" x="2560" y="-236.8" font-family="monospace" font-size="9.00"> &#160;&#160;&#160;&#160;&#160;&#160;&#160;&#160;&#160;&#160;&#160;&#160;&#160;format: UYVY</text>
<text text-anchor="start" x="2560" y="-226.8" font-family="monospace" font-size="9.00"> &#160;&#160;&#160;&#160;&#160;&#160;&#160;&#160;colorimetry: bt709</text>
<text text-anchor="start" x="2560" y="-216.8" font-family="monospace" font-size="9.00"> &#160;&#160;&#160;&#160;&#160;&#160;&#160;&#160;chroma&#45;site: mpeg2</text>
</g>
<!-- capsfilter0_0x5651ae7ec250_sink_0x5651ae7a9160 -->
<g id="node7" class="node">
<title>capsfilter0_0x5651ae7ec250_sink_0x5651ae7a9160</title>
<polygon fill="#aaaaff" stroke="black" points="1979,-224 1925,-224 1925,-204 1979,-204 1979,-224"/>
<text text-anchor="middle" x="1952" y="-216.8" font-family="sans" font-size="9.00">sink</text>
<text text-anchor="middle" x="1952" y="-206.8" font-family="sans" font-size="9.00">[&gt;][bfb]</text>
</g>
<!-- capsfilter0_0x5651ae7ec250_src_0x5651ae7a93b0 -->
<g id="node8" class="node">
<title>capsfilter0_0x5651ae7ec250_src_0x5651ae7a93b0</title>
<polygon fill="#ffaaaa" stroke="black" points="2066,-224 2012,-224 2012,-204 2066,-204 2066,-224"/>
<text text-anchor="middle" x="2039" y="-216.8" font-family="sans" font-size="9.00">src</text>
<text text-anchor="middle" x="2039" y="-206.8" font-family="sans" font-size="9.00">[&gt;][bfb]</text>
</g>
<!-- capsfilter0_0x5651ae7ec250_sink_0x5651ae7a9160&#45;&gt;capsfilter0_0x5651ae7ec250_src_0x5651ae7a93b0 -->
<!-- capsfilter0_0x5651ae7ec250_src_0x5651ae7a93b0&#45;&gt;videoconvert1_0x5651ae6250c0_sink_0x5651ae7a9600 -->
<g id="edge5" class="edge">
<title>capsfilter0_0x5651ae7ec250_src_0x5651ae7a93b0&#45;&gt;videoconvert1_0x5651ae6250c0_sink_0x5651ae7a9600</title>
<path fill="none" stroke="black" d="M2066.19,-214C2132.74,-214 2308.5,-214 2384.8,-214"/>
<polygon fill="black" stroke="black" points="2384.88,-217.5 2394.88,-214 2384.88,-210.5 2384.88,-217.5"/>
<text text-anchor="start" x="2197" y="-286.8" font-family="monospace" font-size="9.00">video/x&#45;raw</text>
<text text-anchor="start" x="2197" y="-276.8" font-family="monospace" font-size="9.00"> &#160;&#160;&#160;&#160;&#160;&#160;&#160;&#160;&#160;&#160;&#160;&#160;&#160;&#160;width: 1920</text>
<text text-anchor="start" x="2197" y="-266.8" font-family="monospace" font-size="9.00"> &#160;&#160;&#160;&#160;&#160;&#160;&#160;&#160;&#160;&#160;&#160;&#160;&#160;height: 1080</text>
<text text-anchor="start" x="2197" y="-256.8" font-family="monospace" font-size="9.00"> &#160;pixel&#45;aspect&#45;ratio: 1/1</text>
<text text-anchor="start" x="2197" y="-246.8" font-family="monospace" font-size="9.00"> &#160;&#160;&#160;&#160;&#160;interlace&#45;mode: progressive</text>
<text text-anchor="start" x="2197" y="-236.8" font-family="monospace" font-size="9.00"> &#160;&#160;&#160;&#160;&#160;&#160;&#160;&#160;&#160;&#160;framerate: 60000/1001</text>
<text text-anchor="start" x="2197" y="-226.8" font-family="monospace" font-size="9.00"> &#160;&#160;&#160;&#160;&#160;&#160;&#160;&#160;&#160;&#160;&#160;&#160;&#160;format: BGR</text>
<text text-anchor="start" x="2197" y="-216.8" font-family="monospace" font-size="9.00"> &#160;&#160;&#160;&#160;&#160;&#160;&#160;&#160;colorimetry: 1:1:5:1</text>
</g>
<!-- videoconvert0_0x5651ae6243c0_sink_0x5651ae7a8cc0 -->
<g id="node9" class="node">
<title>videoconvert0_0x5651ae6243c0_sink_0x5651ae7a8cc0</title>
<polygon fill="#aaaaff" stroke="black" points="1510,-224 1456,-224 1456,-204 1510,-204 1510,-224"/>
<text text-anchor="middle" x="1483" y="-216.8" font-family="sans" font-size="9.00">sink</text>
<text text-anchor="middle" x="1483" y="-206.8" font-family="sans" font-size="9.00">[&gt;][bfb]</text>
</g>
<!-- videoconvert0_0x5651ae6243c0_src_0x5651ae7a8f10 -->
<g id="node10" class="node">
<title>videoconvert0_0x5651ae6243c0_src_0x5651ae7a8f10</title>
<polygon fill="#ffaaaa" stroke="black" points="1597,-224 1543,-224 1543,-204 1597,-204 1597,-224"/>
<text text-anchor="middle" x="1570" y="-216.8" font-family="sans" font-size="9.00">src</text>
<text text-anchor="middle" x="1570" y="-206.8" font-family="sans" font-size="9.00">[&gt;][bfb]</text>
</g>
<!-- videoconvert0_0x5651ae6243c0_sink_0x5651ae7a8cc0&#45;&gt;videoconvert0_0x5651ae6243c0_src_0x5651ae7a8f10 -->
<!-- videoconvert0_0x5651ae6243c0_src_0x5651ae7a8f10&#45;&gt;capsfilter0_0x5651ae7ec250_sink_0x5651ae7a9160 -->
<g id="edge7" class="edge">
<title>videoconvert0_0x5651ae6243c0_src_0x5651ae7a8f10&#45;&gt;capsfilter0_0x5651ae7ec250_sink_0x5651ae7a9160</title>
<path fill="none" stroke="black" d="M1597.12,-214C1663.5,-214 1838.79,-214 1914.89,-214"/>
<polygon fill="black" stroke="black" points="1914.95,-217.5 1924.95,-214 1914.95,-210.5 1914.95,-217.5"/>
<text text-anchor="start" x="1621" y="-286.8" font-family="monospace" font-size="9.00">video/x&#45;raw</text>
<text text-anchor="start" x="1621" y="-276.8" font-family="monospace" font-size="9.00"> &#160;&#160;&#160;&#160;&#160;&#160;&#160;&#160;&#160;&#160;&#160;&#160;&#160;&#160;width: 1920</text>
<text text-anchor="start" x="1621" y="-266.8" font-family="monospace" font-size="9.00"> &#160;&#160;&#160;&#160;&#160;&#160;&#160;&#160;&#160;&#160;&#160;&#160;&#160;height: 1080</text>
<text text-anchor="start" x="1621" y="-256.8" font-family="monospace" font-size="9.00"> &#160;pixel&#45;aspect&#45;ratio: 1/1</text>
<text text-anchor="start" x="1621" y="-246.8" font-family="monospace" font-size="9.00"> &#160;&#160;&#160;&#160;&#160;interlace&#45;mode: progressive</text>
<text text-anchor="start" x="1621" y="-236.8" font-family="monospace" font-size="9.00"> &#160;&#160;&#160;&#160;&#160;&#160;&#160;&#160;&#160;&#160;framerate: 60000/1001</text>
<text text-anchor="start" x="1621" y="-226.8" font-family="monospace" font-size="9.00"> &#160;&#160;&#160;&#160;&#160;&#160;&#160;&#160;&#160;&#160;&#160;&#160;&#160;format: BGR</text>
<text text-anchor="start" x="1621" y="-216.8" font-family="monospace" font-size="9.00"> &#160;&#160;&#160;&#160;&#160;&#160;&#160;&#160;colorimetry: 1:1:5:1</text>
</g>
<!-- queue0_0x5651ae7de050_sink_0x5651ae7a8820 -->
<g id="node11" class="node">
<title>queue0_0x5651ae7de050_sink_0x5651ae7a8820</title>
<polygon fill="#aaaaff" stroke="black" points="1147,-224 1093,-224 1093,-204 1147,-204 1147,-224"/>
<text text-anchor="middle" x="1120" y="-216.8" font-family="sans" font-size="9.00">sink</text>
<text text-anchor="middle" x="1120" y="-206.8" font-family="sans" font-size="9.00">[&gt;][bfb]</text>
</g>
<!-- queue0_0x5651ae7de050_src_0x5651ae7a8a70 -->
<g id="node12" class="node">
<title>queue0_0x5651ae7de050_src_0x5651ae7a8a70</title>
<polygon fill="#ffaaaa" stroke="black" points="1234,-224 1180,-224 1180,-204 1234,-204 1234,-224"/>
<text text-anchor="middle" x="1207" y="-216.8" font-family="sans" font-size="9.00">src</text>
<text text-anchor="middle" x="1207" y="-206.8" font-family="sans" font-size="9.00">[&gt;][bfb][T]</text>
</g>
<!-- queue0_0x5651ae7de050_sink_0x5651ae7a8820&#45;&gt;queue0_0x5651ae7de050_src_0x5651ae7a8a70 -->
<!-- queue0_0x5651ae7de050_src_0x5651ae7a8a70&#45;&gt;videoconvert0_0x5651ae6243c0_sink_0x5651ae7a8cc0 -->
<g id="edge9" class="edge">
<title>queue0_0x5651ae7de050_src_0x5651ae7a8a70&#45;&gt;videoconvert0_0x5651ae6243c0_sink_0x5651ae7a8cc0</title>
<path fill="none" stroke="black" d="M1234.27,-214C1283.47,-214 1389.59,-214 1445.62,-214"/>
<polygon fill="black" stroke="black" points="1445.81,-217.5 1455.81,-214 1445.81,-210.5 1445.81,-217.5"/>
<text text-anchor="start" x="1258" y="-296.8" font-family="monospace" font-size="9.00">video/x&#45;raw</text>
<text text-anchor="start" x="1258" y="-286.8" font-family="monospace" font-size="9.00"> &#160;&#160;&#160;&#160;&#160;&#160;&#160;&#160;&#160;&#160;&#160;&#160;&#160;&#160;width: 1920</text>
<text text-anchor="start" x="1258" y="-276.8" font-family="monospace" font-size="9.00"> &#160;&#160;&#160;&#160;&#160;&#160;&#160;&#160;&#160;&#160;&#160;&#160;&#160;height: 1080</text>
<text text-anchor="start" x="1258" y="-266.8" font-family="monospace" font-size="9.00"> &#160;pixel&#45;aspect&#45;ratio: 1/1</text>
<text text-anchor="start" x="1258" y="-256.8" font-family="monospace" font-size="9.00"> &#160;&#160;&#160;&#160;&#160;interlace&#45;mode: progressive</text>
<text text-anchor="start" x="1258" y="-246.8" font-family="monospace" font-size="9.00"> &#160;&#160;&#160;&#160;&#160;&#160;&#160;&#160;&#160;&#160;framerate: 60000/1001</text>
<text text-anchor="start" x="1258" y="-236.8" font-family="monospace" font-size="9.00"> &#160;&#160;&#160;&#160;&#160;&#160;&#160;&#160;&#160;&#160;&#160;&#160;&#160;format: UYVY</text>
<text text-anchor="start" x="1258" y="-226.8" font-family="monospace" font-size="9.00"> &#160;&#160;&#160;&#160;&#160;&#160;&#160;&#160;colorimetry: bt709</text>
<text text-anchor="start" x="1258" y="-216.8" font-family="monospace" font-size="9.00"> &#160;&#160;&#160;&#160;&#160;&#160;&#160;&#160;chroma&#45;site: mpeg2</text>
</g>
<!-- deinterlace0_0x5651ae7ca570_sink_0x5651ae7a8380 -->
<g id="node13" class="node">
<title>deinterlace0_0x5651ae7ca570_sink_0x5651ae7a8380</title>
<polygon fill="#aaaaff" stroke="black" points="716,-224 662,-224 662,-204 716,-204 716,-224"/>
<text text-anchor="middle" x="689" y="-216.8" font-family="sans" font-size="9.00">sink</text>
<text text-anchor="middle" x="689" y="-206.8" font-family="sans" font-size="9.00">[&gt;][bfb]</text>
</g>
<!-- deinterlace0_0x5651ae7ca570_src_0x5651ae7a85d0 -->
<g id="node14" class="node">
<title>deinterlace0_0x5651ae7ca570_src_0x5651ae7a85d0</title>
<polygon fill="#ffaaaa" stroke="black" points="871,-224 817,-224 817,-204 871,-204 871,-224"/>
<text text-anchor="middle" x="844" y="-216.8" font-family="sans" font-size="9.00">src</text>
<text text-anchor="middle" x="844" y="-206.8" font-family="sans" font-size="9.00">[&gt;][bfb]</text>
</g>
<!-- deinterlace0_0x5651ae7ca570_sink_0x5651ae7a8380&#45;&gt;deinterlace0_0x5651ae7ca570_src_0x5651ae7a85d0 -->
<!-- deinterlace0_0x5651ae7ca570_src_0x5651ae7a85d0&#45;&gt;queue0_0x5651ae7de050_sink_0x5651ae7a8820 -->
<g id="edge11" class="edge">
<title>deinterlace0_0x5651ae7ca570_src_0x5651ae7a85d0&#45;&gt;queue0_0x5651ae7de050_sink_0x5651ae7a8820</title>
<path fill="none" stroke="black" d="M871.27,-214C920.47,-214 1026.59,-214 1082.62,-214"/>
<polygon fill="black" stroke="black" points="1082.81,-217.5 1092.81,-214 1082.81,-210.5 1082.81,-217.5"/>
<text text-anchor="start" x="895" y="-296.8" font-family="monospace" font-size="9.00">video/x&#45;raw</text>
<text text-anchor="start" x="895" y="-286.8" font-family="monospace" font-size="9.00"> &#160;&#160;&#160;&#160;&#160;&#160;&#160;&#160;&#160;&#160;&#160;&#160;&#160;&#160;width: 1920</text>
<text text-anchor="start" x="895" y="-276.8" font-family="monospace" font-size="9.00"> &#160;&#160;&#160;&#160;&#160;&#160;&#160;&#160;&#160;&#160;&#160;&#160;&#160;height: 1080</text>
<text text-anchor="start" x="895" y="-266.8" font-family="monospace" font-size="9.00"> &#160;pixel&#45;aspect&#45;ratio: 1/1</text>
<text text-anchor="start" x="895" y="-256.8" font-family="monospace" font-size="9.00"> &#160;&#160;&#160;&#160;&#160;interlace&#45;mode: progressive</text>
<text text-anchor="start" x="895" y="-246.8" font-family="monospace" font-size="9.00"> &#160;&#160;&#160;&#160;&#160;&#160;&#160;&#160;&#160;&#160;framerate: 60000/1001</text>
<text text-anchor="start" x="895" y="-236.8" font-family="monospace" font-size="9.00"> &#160;&#160;&#160;&#160;&#160;&#160;&#160;&#160;&#160;&#160;&#160;&#160;&#160;format: UYVY</text>
<text text-anchor="start" x="895" y="-226.8" font-family="monospace" font-size="9.00"> &#160;&#160;&#160;&#160;&#160;&#160;&#160;&#160;colorimetry: bt709</text>
<text text-anchor="start" x="895" y="-216.8" font-family="monospace" font-size="9.00"> &#160;&#160;&#160;&#160;&#160;&#160;&#160;&#160;chroma&#45;site: mpeg2</text>
</g>
<!-- decklinkvideosrc0_0x5651ae7a62e0_src_0x5651ae7a8130 -->
<g id="node15" class="node">
<title>decklinkvideosrc0_0x5651ae7a62e0_src_0x5651ae7a8130</title>
<polygon fill="#ffaaaa" stroke="black" points="206.5,-224 152.5,-224 152.5,-204 206.5,-204 206.5,-224"/>
<text text-anchor="middle" x="179.5" y="-216.8" font-family="sans" font-size="9.00">src</text>
<text text-anchor="middle" x="179.5" y="-206.8" font-family="sans" font-size="9.00">[&gt;][bfb][T]</text>
</g>
<!-- decklinkvideosrc0_0x5651ae7a62e0_src_0x5651ae7a8130&#45;&gt;deinterlace0_0x5651ae7ca570_sink_0x5651ae7a8380 -->
<g id="edge12" class="edge">
<title>decklinkvideosrc0_0x5651ae7a62e0_src_0x5651ae7a8130&#45;&gt;deinterlace0_0x5651ae7ca570_sink_0x5651ae7a8380</title>
<path fill="none" stroke="black" d="M206.72,-214C290.94,-214 554.76,-214 651.75,-214"/>
<polygon fill="black" stroke="black" points="651.94,-217.5 661.94,-214 651.94,-210.5 651.94,-217.5"/>
<text text-anchor="start" x="375" y="-306.8" font-family="monospace" font-size="9.00">video/x&#45;raw</text>
<text text-anchor="start" x="375" y="-296.8" font-family="monospace" font-size="9.00"> &#160;&#160;&#160;&#160;&#160;&#160;&#160;&#160;&#160;&#160;&#160;&#160;&#160;&#160;width: 1920</text>
<text text-anchor="start" x="375" y="-286.8" font-family="monospace" font-size="9.00"> &#160;&#160;&#160;&#160;&#160;&#160;&#160;&#160;&#160;&#160;&#160;&#160;&#160;height: 1080</text>
<text text-anchor="start" x="375" y="-276.8" font-family="monospace" font-size="9.00"> &#160;pixel&#45;aspect&#45;ratio: 1/1</text>
<text text-anchor="start" x="375" y="-266.8" font-family="monospace" font-size="9.00"> &#160;&#160;&#160;&#160;&#160;interlace&#45;mode: interleaved</text>
<text text-anchor="start" x="375" y="-256.8" font-family="monospace" font-size="9.00"> &#160;&#160;&#160;&#160;&#160;&#160;&#160;&#160;&#160;&#160;framerate: 30000/1001</text>
<text text-anchor="start" x="375" y="-246.8" font-family="monospace" font-size="9.00"> &#160;&#160;&#160;&#160;&#160;&#160;&#160;&#160;field&#45;order: top&#45;field&#45;first</text>
<text text-anchor="start" x="375" y="-236.8" font-family="monospace" font-size="9.00"> &#160;&#160;&#160;&#160;&#160;&#160;&#160;&#160;&#160;&#160;&#160;&#160;&#160;format: UYVY</text>
<text text-anchor="start" x="375" y="-226.8" font-family="monospace" font-size="9.00"> &#160;&#160;&#160;&#160;&#160;&#160;&#160;&#160;colorimetry: bt709</text>
<text text-anchor="start" x="375" y="-216.8" font-family="monospace" font-size="9.00"> &#160;&#160;&#160;&#160;&#160;&#160;&#160;&#160;chroma&#45;site: mpeg2</text>
</g>
</g>
</svg>
