<?xml version="1.0" encoding="UTF-8" standalone="no"?>
<!DOCTYPE svg PUBLIC "-//W3C//DTD SVG 1.1//EN"
 "http://www.w3.org/Graphics/SVG/1.1/DTD/svg11.dtd">
<!-- Generated by graphviz version 2.43.0 (0)
 -->
<!-- Title: pipeline Pages: 1 -->
<svg width="2986pt" height="386pt"
 viewBox="0.00 0.00 2986.00 386.00" xmlns="http://www.w3.org/2000/svg" xmlns:xlink="http://www.w3.org/1999/xlink">
<g id="graph0" class="graph" transform="scale(1 1) rotate(0) translate(4 382)">
<title>pipeline</title>
<polygon fill="white" stroke="transparent" points="-4,4 -4,-382 2982,-382 2982,4 -4,4"/>
<text text-anchor="middle" x="1489" y="-366" font-family="sans" font-size="10.00">&lt;GstPipeline&gt;</text>
<text text-anchor="middle" x="1489" y="-355" font-family="sans" font-size="10.00">pipeline0</text>
<text text-anchor="middle" x="1489" y="-344" font-family="sans" font-size="10.00">[=] &#45;&gt; [0]</text>
<g id="clust1" class="cluster">
<title>cluster_capsfilter0_0x55f120d1ab50</title>
<path fill="#aaffaa" stroke="black" d="M2211,-66C2211,-66 2573,-66 2573,-66 2579,-66 2585,-72 2585,-78 2585,-78 2585,-150 2585,-150 2585,-156 2579,-162 2573,-162 2573,-162 2211,-162 2211,-162 2205,-162 2199,-156 2199,-150 2199,-150 2199,-78 2199,-78 2199,-72 2205,-66 2211,-66"/>
<text text-anchor="middle" x="2392" y="-151.6" font-family="Bitstream Vera Sans" font-size="8.00">GstCapsFilter</text>
<text text-anchor="middle" x="2392" y="-142.6" font-family="Bitstream Vera Sans" font-size="8.00">capsfilter0</text>
<text text-anchor="middle" x="2392" y="-133.6" font-family="Bitstream Vera Sans" font-size="8.00">[=]</text>
<text text-anchor="middle" x="2392" y="-124.6" font-family="Bitstream Vera Sans" font-size="8.00">caps=video/x&#45;raw, format=(string)UYVY, width=(int)1920, height=(int)1080, interlace&#45;m…</text>
</g>
<g id="clust2" class="cluster">
<title>cluster_capsfilter0_0x55f120d1ab50_sink</title>
</g>
<g id="clust3" class="cluster">
<title>cluster_capsfilter0_0x55f120d1ab50_src</title>
</g>
<g id="clust4" class="cluster">
<title>cluster_decklinkaudiosink0_0x55f120d10db0</title>
<path fill="#aaaaff" stroke="black" d="M998,-206C998,-206 1176,-206 1176,-206 1182,-206 1188,-212 1188,-218 1188,-218 1188,-317 1188,-317 1188,-323 1182,-329 1176,-329 1176,-329 998,-329 998,-329 992,-329 986,-323 986,-317 986,-317 986,-218 986,-218 986,-212 992,-206 998,-206"/>
<text text-anchor="middle" x="1087" y="-318.6" font-family="Bitstream Vera Sans" font-size="8.00">GstDecklinkAudioSink</text>
<text text-anchor="middle" x="1087" y="-309.6" font-family="Bitstream Vera Sans" font-size="8.00">decklinkaudiosink0</text>
<text text-anchor="middle" x="1087" y="-300.6" font-family="Bitstream Vera Sans" font-size="8.00">[&gt;] &#45;&gt; [=]</text>
<text text-anchor="middle" x="1087" y="-291.6" font-family="Bitstream Vera Sans" font-size="8.00">sync=FALSE</text>
<text text-anchor="middle" x="1087" y="-282.6" font-family="Bitstream Vera Sans" font-size="8.00">max&#45;lateness=20000000</text>
<text text-anchor="middle" x="1087" y="-273.6" font-family="Bitstream Vera Sans" font-size="8.00">last&#45;sample=((GstSample*) 0x55f120d7feb0)</text>
<text text-anchor="middle" x="1087" y="-264.6" font-family="Bitstream Vera Sans" font-size="8.00">hw&#45;serial&#45;number=&quot;&quot;</text>
</g>
<g id="clust5" class="cluster">
<title>cluster_decklinkaudiosink0_0x55f120d10db0_sink</title>
</g>
<g id="clust6" class="cluster">
<title>cluster_queue1_0x55f120d0d460</title>
<path fill="#aaffaa" stroke="black" d="M598,-206C598,-206 747,-206 747,-206 753,-206 759,-212 759,-218 759,-218 759,-290 759,-290 759,-296 753,-302 747,-302 747,-302 598,-302 598,-302 592,-302 586,-296 586,-290 586,-290 586,-218 586,-218 586,-212 592,-206 598,-206"/>
<text text-anchor="middle" x="672.5" y="-291.6" font-family="Bitstream Vera Sans" font-size="8.00">GstQueue</text>
<text text-anchor="middle" x="672.5" y="-282.6" font-family="Bitstream Vera Sans" font-size="8.00">queue1</text>
<text text-anchor="middle" x="672.5" y="-273.6" font-family="Bitstream Vera Sans" font-size="8.00">[=]</text>
<text text-anchor="middle" x="672.5" y="-264.6" font-family="Bitstream Vera Sans" font-size="8.00">max&#45;size&#45;buffers=2</text>
</g>
<g id="clust7" class="cluster">
<title>cluster_queue1_0x55f120d0d460_sink</title>
</g>
<g id="clust8" class="cluster">
<title>cluster_queue1_0x55f120d0d460_src</title>
</g>
<g id="clust9" class="cluster">
<title>cluster_decklinkaudiosrc0_0x55f120d0c940</title>
<path fill="#ffaaaa" stroke="black" d="M140.5,-206C140.5,-206 219.5,-206 219.5,-206 225.5,-206 231.5,-212 231.5,-218 231.5,-218 231.5,-299 231.5,-299 231.5,-305 225.5,-311 219.5,-311 219.5,-311 140.5,-311 140.5,-311 134.5,-311 128.5,-305 128.5,-299 128.5,-299 128.5,-218 128.5,-218 128.5,-212 134.5,-206 140.5,-206"/>
<text text-anchor="middle" x="180" y="-300.6" font-family="Bitstream Vera Sans" font-size="8.00">GstDecklinkAudioSrc</text>
<text text-anchor="middle" x="180" y="-291.6" font-family="Bitstream Vera Sans" font-size="8.00">decklinkaudiosrc0</text>
<text text-anchor="middle" x="180" y="-282.6" font-family="Bitstream Vera Sans" font-size="8.00">[=]</text>
<text text-anchor="middle" x="180" y="-273.6" font-family="Bitstream Vera Sans" font-size="8.00">device&#45;number=1</text>
<text text-anchor="middle" x="180" y="-264.6" font-family="Bitstream Vera Sans" font-size="8.00">hw&#45;serial&#45;number=&quot;&quot;</text>
</g>
<g id="clust10" class="cluster">
<title>cluster_decklinkaudiosrc0_0x55f120d0c940_src</title>
</g>
<g id="clust11" class="cluster">
<title>cluster_decklinkvideosink0_0x55f120d0b030</title>
<path fill="#aaaaff" stroke="black" d="M2787,-66C2787,-66 2966,-66 2966,-66 2972,-66 2978,-72 2978,-78 2978,-78 2978,-195 2978,-195 2978,-201 2972,-207 2966,-207 2966,-207 2787,-207 2787,-207 2781,-207 2775,-201 2775,-195 2775,-195 2775,-78 2775,-78 2775,-72 2781,-66 2787,-66"/>
<text text-anchor="middle" x="2876.5" y="-196.6" font-family="Bitstream Vera Sans" font-size="8.00">GstDecklinkVideoSink</text>
<text text-anchor="middle" x="2876.5" y="-187.6" font-family="Bitstream Vera Sans" font-size="8.00">decklinkvideosink0</text>
<text text-anchor="middle" x="2876.5" y="-178.6" font-family="Bitstream Vera Sans" font-size="8.00">[&gt;] &#45;&gt; [=]</text>
<text text-anchor="middle" x="2876.5" y="-169.6" font-family="Bitstream Vera Sans" font-size="8.00">sync=FALSE</text>
<text text-anchor="middle" x="2876.5" y="-160.6" font-family="Bitstream Vera Sans" font-size="8.00">max&#45;lateness=20000000</text>
<text text-anchor="middle" x="2876.5" y="-151.6" font-family="Bitstream Vera Sans" font-size="8.00">qos=TRUE</text>
<text text-anchor="middle" x="2876.5" y="-142.6" font-family="Bitstream Vera Sans" font-size="8.00">last&#45;sample=((GstSample*) 0x55f120d8b9c0)</text>
<text text-anchor="middle" x="2876.5" y="-133.6" font-family="Bitstream Vera Sans" font-size="8.00">mode=1080p2997</text>
<text text-anchor="middle" x="2876.5" y="-124.6" font-family="Bitstream Vera Sans" font-size="8.00">hw&#45;serial&#45;number=&quot;&quot;</text>
</g>
<g id="clust12" class="cluster">
<title>cluster_decklinkvideosink0_0x55f120d0b030_sink</title>
</g>
<g id="clust13" class="cluster">
<title>cluster_videoconvert0_0x55f120a9ac70</title>
<path fill="#aaffaa" stroke="black" d="M1848,-66C1848,-66 1997,-66 1997,-66 2003,-66 2009,-72 2009,-78 2009,-78 2009,-150 2009,-150 2009,-156 2003,-162 1997,-162 1997,-162 1848,-162 1848,-162 1842,-162 1836,-156 1836,-150 1836,-150 1836,-78 1836,-78 1836,-72 1842,-66 1848,-66"/>
<text text-anchor="middle" x="1922.5" y="-151.6" font-family="Bitstream Vera Sans" font-size="8.00">GstVideoConvert</text>
<text text-anchor="middle" x="1922.5" y="-142.6" font-family="Bitstream Vera Sans" font-size="8.00">videoconvert0</text>
<text text-anchor="middle" x="1922.5" y="-133.6" font-family="Bitstream Vera Sans" font-size="8.00">[=]</text>
<text text-anchor="middle" x="1922.5" y="-124.6" font-family="Bitstream Vera Sans" font-size="8.00">qos=TRUE</text>
</g>
<g id="clust14" class="cluster">
<title>cluster_videoconvert0_0x55f120a9ac70_sink</title>
</g>
<g id="clust15" class="cluster">
<title>cluster_videoconvert0_0x55f120a9ac70_src</title>
</g>
<g id="clust16" class="cluster">
<title>cluster_queue0_0x55f120ce0d50</title>
<path fill="#aaffaa" stroke="black" d="M1485,-66C1485,-66 1634,-66 1634,-66 1640,-66 1646,-72 1646,-78 1646,-78 1646,-177 1646,-177 1646,-183 1640,-189 1634,-189 1634,-189 1485,-189 1485,-189 1479,-189 1473,-183 1473,-177 1473,-177 1473,-78 1473,-78 1473,-72 1479,-66 1485,-66"/>
<text text-anchor="middle" x="1559.5" y="-178.6" font-family="Bitstream Vera Sans" font-size="8.00">GstQueue</text>
<text text-anchor="middle" x="1559.5" y="-169.6" font-family="Bitstream Vera Sans" font-size="8.00">queue0</text>
<text text-anchor="middle" x="1559.5" y="-160.6" font-family="Bitstream Vera Sans" font-size="8.00">[=]</text>
<text text-anchor="middle" x="1559.5" y="-151.6" font-family="Bitstream Vera Sans" font-size="8.00">max&#45;size&#45;buffers=2</text>
<text text-anchor="middle" x="1559.5" y="-142.6" font-family="Bitstream Vera Sans" font-size="8.00">max&#45;size&#45;bytes=0</text>
<text text-anchor="middle" x="1559.5" y="-133.6" font-family="Bitstream Vera Sans" font-size="8.00">max&#45;size&#45;time=0</text>
<text text-anchor="middle" x="1559.5" y="-124.6" font-family="Bitstream Vera Sans" font-size="8.00">leaky=downstream</text>
</g>
<g id="clust17" class="cluster">
<title>cluster_queue0_0x55f120ce0d50_sink</title>
</g>
<g id="clust18" class="cluster">
<title>cluster_queue0_0x55f120ce0d50_src</title>
</g>
<g id="clust19" class="cluster">
<title>cluster_videorate0_0x55f120cdbee0</title>
<path fill="#aaffaa" stroke="black" d="M1056,-66C1056,-66 1271,-66 1271,-66 1277,-66 1283,-72 1283,-78 1283,-78 1283,-168 1283,-168 1283,-174 1277,-180 1271,-180 1271,-180 1056,-180 1056,-180 1050,-180 1044,-174 1044,-168 1044,-168 1044,-78 1044,-78 1044,-72 1050,-66 1056,-66"/>
<text text-anchor="middle" x="1163.5" y="-169.6" font-family="Bitstream Vera Sans" font-size="8.00">GstVideoRate</text>
<text text-anchor="middle" x="1163.5" y="-160.6" font-family="Bitstream Vera Sans" font-size="8.00">videorate0</text>
<text text-anchor="middle" x="1163.5" y="-151.6" font-family="Bitstream Vera Sans" font-size="8.00">[=]</text>
<text text-anchor="middle" x="1163.5" y="-142.6" font-family="Bitstream Vera Sans" font-size="8.00">in=23412</text>
<text text-anchor="middle" x="1163.5" y="-133.6" font-family="Bitstream Vera Sans" font-size="8.00">out=11706</text>
<text text-anchor="middle" x="1163.5" y="-124.6" font-family="Bitstream Vera Sans" font-size="8.00">drop=11705</text>
</g>
<g id="clust20" class="cluster">
<title>cluster_videorate0_0x55f120cdbee0_sink</title>
</g>
<g id="clust21" class="cluster">
<title>cluster_videorate0_0x55f120cdbee0_src</title>
</g>
<g id="clust22" class="cluster">
<title>cluster_deinterlace0_0x55f120cd5470</title>
<path fill="#aaffaa" stroke="black" d="M598,-66C598,-66 747,-66 747,-66 753,-66 759,-72 759,-78 759,-78 759,-150 759,-150 759,-156 753,-162 747,-162 747,-162 598,-162 598,-162 592,-162 586,-156 586,-150 586,-150 586,-78 586,-78 586,-72 592,-66 598,-66"/>
<text text-anchor="middle" x="672.5" y="-151.6" font-family="Bitstream Vera Sans" font-size="8.00">GstDeinterlace</text>
<text text-anchor="middle" x="672.5" y="-142.6" font-family="Bitstream Vera Sans" font-size="8.00">deinterlace0</text>
<text text-anchor="middle" x="672.5" y="-133.6" font-family="Bitstream Vera Sans" font-size="8.00">[=]</text>
<text text-anchor="middle" x="672.5" y="-124.6" font-family="Bitstream Vera Sans" font-size="8.00">method=greedyl</text>
</g>
<g id="clust23" class="cluster">
<title>cluster_deinterlace0_0x55f120cd5470_sink</title>
</g>
<g id="clust24" class="cluster">
<title>cluster_deinterlace0_0x55f120cd5470_src</title>
</g>
<g id="clust25" class="cluster">
<title>cluster_decklinkvideosrc0_0x55f120cccbd0</title>
<path fill="#ffaaaa" stroke="black" d="M123.5,-66C123.5,-66 236.5,-66 236.5,-66 242.5,-66 248.5,-72 248.5,-78 248.5,-78 248.5,-186 248.5,-186 248.5,-192 242.5,-198 236.5,-198 236.5,-198 123.5,-198 123.5,-198 117.5,-198 111.5,-192 111.5,-186 111.5,-186 111.5,-78 111.5,-78 111.5,-72 117.5,-66 123.5,-66"/>
<text text-anchor="middle" x="180" y="-187.6" font-family="Bitstream Vera Sans" font-size="8.00">GstDecklinkVideoSrc</text>
<text text-anchor="middle" x="180" y="-178.6" font-family="Bitstream Vera Sans" font-size="8.00">decklinkvideosrc0</text>
<text text-anchor="middle" x="180" y="-169.6" font-family="Bitstream Vera Sans" font-size="8.00">[=]</text>
<text text-anchor="middle" x="180" y="-160.6" font-family="Bitstream Vera Sans" font-size="8.00">mode=1080i5994</text>
<text text-anchor="middle" x="180" y="-151.6" font-family="Bitstream Vera Sans" font-size="8.00">device&#45;number=1</text>
<text text-anchor="middle" x="180" y="-142.6" font-family="Bitstream Vera Sans" font-size="8.00">drop&#45;no&#45;signal&#45;frames=TRUE</text>
<text text-anchor="middle" x="180" y="-133.6" font-family="Bitstream Vera Sans" font-size="8.00">signal=TRUE</text>
<text text-anchor="middle" x="180" y="-124.6" font-family="Bitstream Vera Sans" font-size="8.00">hw&#45;serial&#45;number=&quot;&quot;</text>
</g>
<g id="clust26" class="cluster">
<title>cluster_decklinkvideosrc0_0x55f120cccbd0_src</title>
</g>
<!-- legend -->
<g id="node1" class="node">
<title>legend</title>
<polygon fill="lightgrey" stroke="black" points="359,-58 0,-58 0,0 359,0 359,-58"/>
<text text-anchor="start" x="4" y="-46.8" font-family="sans" font-size="9.00">Legend</text>
<text text-anchor="start" x="4" y="-36.8" font-family="sans" font-size="9.00">Element&#45;States: [~] void&#45;pending, [0] null, [&#45;] ready, [=] paused, [&gt;] playing</text>
<text text-anchor="start" x="4" y="-26.8" font-family="sans" font-size="9.00">Pad&#45;Activation: [&#45;] none, [&gt;] push, [&lt;] pull</text>
<text text-anchor="start" x="4" y="-16.8" font-family="sans" font-size="9.00">Pad&#45;Flags: [b]locked, [f]lushing, [b]locking, [E]OS; upper&#45;case is set</text>
<text text-anchor="start" x="4" y="-6.8" font-family="sans" font-size="9.00">Pad&#45;Task: [T] has started task, [t] has paused task</text>
</g>
<!-- capsfilter0_0x55f120d1ab50_sink_0x55f120d14c90 -->
<g id="node2" class="node">
<title>capsfilter0_0x55f120d1ab50_sink_0x55f120d14c90</title>
<polygon fill="#aaaaff" stroke="black" points="2375,-102 2321,-102 2321,-82 2375,-82 2375,-102"/>
<text text-anchor="middle" x="2348" y="-94.8" font-family="sans" font-size="9.00">sink</text>
<text text-anchor="middle" x="2348" y="-84.8" font-family="sans" font-size="9.00">[&gt;][bfb]</text>
</g>
<!-- capsfilter0_0x55f120d1ab50_src_0x55f120d13200 -->
<g id="node3" class="node">
<title>capsfilter0_0x55f120d1ab50_src_0x55f120d13200</title>
<polygon fill="#ffaaaa" stroke="black" points="2462,-102 2408,-102 2408,-82 2462,-82 2462,-102"/>
<text text-anchor="middle" x="2435" y="-94.8" font-family="sans" font-size="9.00">src</text>
<text text-anchor="middle" x="2435" y="-84.8" font-family="sans" font-size="9.00">[&gt;][bfb]</text>
</g>
<!-- capsfilter0_0x55f120d1ab50_sink_0x55f120d14c90&#45;&gt;capsfilter0_0x55f120d1ab50_src_0x55f120d13200 -->
<!-- decklinkvideosink0_0x55f120d0b030_sink_0x55f120d0b410 -->
<g id="node4" class="node">
<title>decklinkvideosink0_0x55f120d0b030_sink_0x55f120d0b410</title>
<polygon fill="#aaaaff" stroke="black" points="2903,-102 2849,-102 2849,-82 2903,-82 2903,-102"/>
<text text-anchor="middle" x="2876" y="-94.8" font-family="sans" font-size="9.00">sink</text>
<text text-anchor="middle" x="2876" y="-84.8" font-family="sans" font-size="9.00">[&gt;][bfb]</text>
</g>
<!-- capsfilter0_0x55f120d1ab50_src_0x55f120d13200&#45;&gt;decklinkvideosink0_0x55f120d0b030_sink_0x55f120d0b410 -->
<g id="edge2" class="edge">
<title>capsfilter0_0x55f120d1ab50_src_0x55f120d13200&#45;&gt;decklinkvideosink0_0x55f120d0b030_sink_0x55f120d0b410</title>
<path fill="none" stroke="black" d="M2462.15,-92C2537.1,-92 2752.85,-92 2838.92,-92"/>
<polygon fill="black" stroke="black" points="2838.99,-95.5 2848.99,-92 2838.99,-88.5 2838.99,-95.5"/>
<text text-anchor="start" x="2593" y="-174.8" font-family="monospace" font-size="9.00">video/x&#45;raw</text>
<text text-anchor="start" x="2593" y="-164.8" font-family="monospace" font-size="9.00"> &#160;&#160;&#160;&#160;&#160;&#160;&#160;&#160;&#160;&#160;&#160;&#160;&#160;&#160;width: 1920</text>
<text text-anchor="start" x="2593" y="-154.8" font-family="monospace" font-size="9.00"> &#160;&#160;&#160;&#160;&#160;&#160;&#160;&#160;&#160;&#160;&#160;&#160;&#160;height: 1080</text>
<text text-anchor="start" x="2593" y="-144.8" font-family="monospace" font-size="9.00"> &#160;pixel&#45;aspect&#45;ratio: 1/1</text>
<text text-anchor="start" x="2593" y="-134.8" font-family="monospace" font-size="9.00"> &#160;&#160;&#160;&#160;&#160;interlace&#45;mode: progressive</text>
<text text-anchor="start" x="2593" y="-124.8" font-family="monospace" font-size="9.00"> &#160;&#160;&#160;&#160;&#160;&#160;&#160;&#160;&#160;&#160;framerate: 30000/1001</text>
<text text-anchor="start" x="2593" y="-114.8" font-family="monospace" font-size="9.00"> &#160;&#160;&#160;&#160;&#160;&#160;&#160;&#160;&#160;&#160;&#160;&#160;&#160;format: UYVY</text>
<text text-anchor="start" x="2593" y="-104.8" font-family="monospace" font-size="9.00"> &#160;&#160;&#160;&#160;&#160;&#160;&#160;&#160;colorimetry: bt709</text>
<text text-anchor="start" x="2593" y="-94.8" font-family="monospace" font-size="9.00"> &#160;&#160;&#160;&#160;&#160;&#160;&#160;&#160;chroma&#45;site: mpeg2</text>
</g>
<!-- decklinkaudiosink0_0x55f120d10db0_sink_0x55f120d11250 -->
<g id="node5" class="node">
<title>decklinkaudiosink0_0x55f120d10db0_sink_0x55f120d11250</title>
<polygon fill="#aaaaff" stroke="black" points="1114,-242 1060,-242 1060,-222 1114,-222 1114,-242"/>
<text text-anchor="middle" x="1087" y="-234.8" font-family="sans" font-size="9.00">sink</text>
<text text-anchor="middle" x="1087" y="-224.8" font-family="sans" font-size="9.00">[&gt;][bfb]</text>
</g>
<!-- queue1_0x55f120d0d460_sink_0x55f120d0d960 -->
<g id="node6" class="node">
<title>queue1_0x55f120d0d460_sink_0x55f120d0d960</title>
<polygon fill="#aaaaff" stroke="black" points="656,-242 602,-242 602,-222 656,-222 656,-242"/>
<text text-anchor="middle" x="629" y="-234.8" font-family="sans" font-size="9.00">sink</text>
<text text-anchor="middle" x="629" y="-224.8" font-family="sans" font-size="9.00">[&gt;][bfb]</text>
</g>
<!-- queue1_0x55f120d0d460_src_0x55f120d0de60 -->
<g id="node7" class="node">
<title>queue1_0x55f120d0d460_src_0x55f120d0de60</title>
<polygon fill="#ffaaaa" stroke="black" points="743,-242 689,-242 689,-222 743,-222 743,-242"/>
<text text-anchor="middle" x="716" y="-234.8" font-family="sans" font-size="9.00">src</text>
<text text-anchor="middle" x="716" y="-224.8" font-family="sans" font-size="9.00">[&gt;][bfb][T]</text>
</g>
<!-- queue1_0x55f120d0d460_sink_0x55f120d0d960&#45;&gt;queue1_0x55f120d0d460_src_0x55f120d0de60 -->
<!-- queue1_0x55f120d0d460_src_0x55f120d0de60&#45;&gt;decklinkaudiosink0_0x55f120d10db0_sink_0x55f120d11250 -->
<g id="edge4" class="edge">
<title>queue1_0x55f120d0d460_src_0x55f120d0de60&#45;&gt;decklinkaudiosink0_0x55f120d10db0_sink_0x55f120d11250</title>
<path fill="none" stroke="black" d="M743.24,-232C807.9,-232 975,-232 1049.37,-232"/>
<polygon fill="black" stroke="black" points="1049.65,-235.5 1059.65,-232 1049.65,-228.5 1049.65,-235.5"/>
<text text-anchor="start" x="767" y="-284.8" font-family="monospace" font-size="9.00">audio/x&#45;raw</text>
<text text-anchor="start" x="767" y="-274.8" font-family="monospace" font-size="9.00"> &#160;&#160;&#160;&#160;&#160;&#160;&#160;&#160;&#160;&#160;&#160;&#160;&#160;format: S32LE</text>
<text text-anchor="start" x="767" y="-264.8" font-family="monospace" font-size="9.00"> &#160;&#160;&#160;&#160;&#160;&#160;&#160;&#160;&#160;&#160;&#160;&#160;&#160;layout: interleaved</text>
<text text-anchor="start" x="767" y="-254.8" font-family="monospace" font-size="9.00"> &#160;&#160;&#160;&#160;&#160;&#160;&#160;&#160;&#160;&#160;&#160;&#160;&#160;&#160;&#160;rate: 48000</text>
<text text-anchor="start" x="767" y="-244.8" font-family="monospace" font-size="9.00"> &#160;&#160;&#160;&#160;&#160;&#160;&#160;&#160;&#160;&#160;&#160;channels: 2</text>
<text text-anchor="start" x="767" y="-234.8" font-family="monospace" font-size="9.00"> &#160;&#160;&#160;&#160;&#160;&#160;&#160;channel&#45;mask: 0x0000000000000003</text>
</g>
<!-- decklinkaudiosrc0_0x55f120d0c940_src_0x55f120d0ce50 -->
<g id="node8" class="node">
<title>decklinkaudiosrc0_0x55f120d0c940_src_0x55f120d0ce50</title>
<polygon fill="#ffaaaa" stroke="black" points="206.5,-242 152.5,-242 152.5,-222 206.5,-222 206.5,-242"/>
<text text-anchor="middle" x="179.5" y="-234.8" font-family="sans" font-size="9.00">src</text>
<text text-anchor="middle" x="179.5" y="-224.8" font-family="sans" font-size="9.00">[&gt;][bfb][T]</text>
</g>
<!-- decklinkaudiosrc0_0x55f120d0c940_src_0x55f120d0ce50&#45;&gt;queue1_0x55f120d0d460_sink_0x55f120d0d960 -->
<g id="edge5" class="edge">
<title>decklinkaudiosrc0_0x55f120d0c940_src_0x55f120d0ce50&#45;&gt;queue1_0x55f120d0d460_sink_0x55f120d0d960</title>
<path fill="none" stroke="black" d="M206.82,-232C283.08,-232 504.27,-232 591.76,-232"/>
<polygon fill="black" stroke="black" points="591.99,-235.5 601.99,-232 591.99,-228.5 591.99,-235.5"/>
<text text-anchor="start" x="367" y="-284.8" font-family="monospace" font-size="9.00">audio/x&#45;raw</text>
<text text-anchor="start" x="367" y="-274.8" font-family="monospace" font-size="9.00"> &#160;&#160;&#160;&#160;&#160;&#160;&#160;&#160;&#160;&#160;&#160;&#160;&#160;format: S32LE</text>
<text text-anchor="start" x="367" y="-264.8" font-family="monospace" font-size="9.00"> &#160;&#160;&#160;&#160;&#160;&#160;&#160;&#160;&#160;&#160;&#160;&#160;&#160;layout: interleaved</text>
<text text-anchor="start" x="367" y="-254.8" font-family="monospace" font-size="9.00"> &#160;&#160;&#160;&#160;&#160;&#160;&#160;&#160;&#160;&#160;&#160;&#160;&#160;&#160;&#160;rate: 48000</text>
<text text-anchor="start" x="367" y="-244.8" font-family="monospace" font-size="9.00"> &#160;&#160;&#160;&#160;&#160;&#160;&#160;&#160;&#160;&#160;&#160;channels: 2</text>
<text text-anchor="start" x="367" y="-234.8" font-family="monospace" font-size="9.00"> &#160;&#160;&#160;&#160;&#160;&#160;&#160;channel&#45;mask: 0x0000000000000003</text>
</g>
<!-- videoconvert0_0x55f120a9ac70_sink_0x55f120a9b090 -->
<g id="node9" class="node">
<title>videoconvert0_0x55f120a9ac70_sink_0x55f120a9b090</title>
<polygon fill="#aaaaff" stroke="black" points="1906,-102 1852,-102 1852,-82 1906,-82 1906,-102"/>
<text text-anchor="middle" x="1879" y="-94.8" font-family="sans" font-size="9.00">sink</text>
<text text-anchor="middle" x="1879" y="-84.8" font-family="sans" font-size="9.00">[&gt;][bfb]</text>
</g>
<!-- videoconvert0_0x55f120a9ac70_src_0x55f120a9b410 -->
<g id="node10" class="node">
<title>videoconvert0_0x55f120a9ac70_src_0x55f120a9b410</title>
<polygon fill="#ffaaaa" stroke="black" points="1993,-102 1939,-102 1939,-82 1993,-82 1993,-102"/>
<text text-anchor="middle" x="1966" y="-94.8" font-family="sans" font-size="9.00">src</text>
<text text-anchor="middle" x="1966" y="-84.8" font-family="sans" font-size="9.00">[&gt;][bfb]</text>
</g>
<!-- videoconvert0_0x55f120a9ac70_sink_0x55f120a9b090&#45;&gt;videoconvert0_0x55f120a9ac70_src_0x55f120a9b410 -->
<!-- videoconvert0_0x55f120a9ac70_src_0x55f120a9b410&#45;&gt;capsfilter0_0x55f120d1ab50_sink_0x55f120d14c90 -->
<g id="edge7" class="edge">
<title>videoconvert0_0x55f120a9ac70_src_0x55f120a9b410&#45;&gt;capsfilter0_0x55f120d1ab50_sink_0x55f120d14c90</title>
<path fill="none" stroke="black" d="M1993.12,-92C2059.5,-92 2234.79,-92 2310.89,-92"/>
<polygon fill="black" stroke="black" points="2310.95,-95.5 2320.95,-92 2310.95,-88.5 2310.95,-95.5"/>
<text text-anchor="start" x="2017" y="-174.8" font-family="monospace" font-size="9.00">video/x&#45;raw</text>
<text text-anchor="start" x="2017" y="-164.8" font-family="monospace" font-size="9.00"> &#160;&#160;&#160;&#160;&#160;&#160;&#160;&#160;&#160;&#160;&#160;&#160;&#160;&#160;width: 1920</text>
<text text-anchor="start" x="2017" y="-154.8" font-family="monospace" font-size="9.00"> &#160;&#160;&#160;&#160;&#160;&#160;&#160;&#160;&#160;&#160;&#160;&#160;&#160;height: 1080</text>
<text text-anchor="start" x="2017" y="-144.8" font-family="monospace" font-size="9.00"> &#160;pixel&#45;aspect&#45;ratio: 1/1</text>
<text text-anchor="start" x="2017" y="-134.8" font-family="monospace" font-size="9.00"> &#160;&#160;&#160;&#160;&#160;interlace&#45;mode: progressive</text>
<text text-anchor="start" x="2017" y="-124.8" font-family="monospace" font-size="9.00"> &#160;&#160;&#160;&#160;&#160;&#160;&#160;&#160;&#160;&#160;framerate: 30000/1001</text>
<text text-anchor="start" x="2017" y="-114.8" font-family="monospace" font-size="9.00"> &#160;&#160;&#160;&#160;&#160;&#160;&#160;&#160;&#160;&#160;&#160;&#160;&#160;format: UYVY</text>
<text text-anchor="start" x="2017" y="-104.8" font-family="monospace" font-size="9.00"> &#160;&#160;&#160;&#160;&#160;&#160;&#160;&#160;colorimetry: bt709</text>
<text text-anchor="start" x="2017" y="-94.8" font-family="monospace" font-size="9.00"> &#160;&#160;&#160;&#160;&#160;&#160;&#160;&#160;chroma&#45;site: mpeg2</text>
</g>
<!-- queue0_0x55f120ce0d50_sink_0x55f120ce11e0 -->
<g id="node11" class="node">
<title>queue0_0x55f120ce0d50_sink_0x55f120ce11e0</title>
<polygon fill="#aaaaff" stroke="black" points="1543,-102 1489,-102 1489,-82 1543,-82 1543,-102"/>
<text text-anchor="middle" x="1516" y="-94.8" font-family="sans" font-size="9.00">sink</text>
<text text-anchor="middle" x="1516" y="-84.8" font-family="sans" font-size="9.00">[&gt;][bfb]</text>
</g>
<!-- queue0_0x55f120ce0d50_src_0x55f120ce15d0 -->
<g id="node12" class="node">
<title>queue0_0x55f120ce0d50_src_0x55f120ce15d0</title>
<polygon fill="#ffaaaa" stroke="black" points="1630,-102 1576,-102 1576,-82 1630,-82 1630,-102"/>
<text text-anchor="middle" x="1603" y="-94.8" font-family="sans" font-size="9.00">src</text>
<text text-anchor="middle" x="1603" y="-84.8" font-family="sans" font-size="9.00">[&gt;][bfb][T]</text>
</g>
<!-- queue0_0x55f120ce0d50_sink_0x55f120ce11e0&#45;&gt;queue0_0x55f120ce0d50_src_0x55f120ce15d0 -->
<!-- queue0_0x55f120ce0d50_src_0x55f120ce15d0&#45;&gt;videoconvert0_0x55f120a9ac70_sink_0x55f120a9b090 -->
<g id="edge9" class="edge">
<title>queue0_0x55f120ce0d50_src_0x55f120ce15d0&#45;&gt;videoconvert0_0x55f120a9ac70_sink_0x55f120a9b090</title>
<path fill="none" stroke="black" d="M1630.27,-92C1679.47,-92 1785.59,-92 1841.62,-92"/>
<polygon fill="black" stroke="black" points="1841.81,-95.5 1851.81,-92 1841.81,-88.5 1841.81,-95.5"/>
<text text-anchor="start" x="1654" y="-174.8" font-family="monospace" font-size="9.00">video/x&#45;raw</text>
<text text-anchor="start" x="1654" y="-164.8" font-family="monospace" font-size="9.00"> &#160;&#160;&#160;&#160;&#160;&#160;&#160;&#160;&#160;&#160;&#160;&#160;&#160;&#160;width: 1920</text>
<text text-anchor="start" x="1654" y="-154.8" font-family="monospace" font-size="9.00"> &#160;&#160;&#160;&#160;&#160;&#160;&#160;&#160;&#160;&#160;&#160;&#160;&#160;height: 1080</text>
<text text-anchor="start" x="1654" y="-144.8" font-family="monospace" font-size="9.00"> &#160;pixel&#45;aspect&#45;ratio: 1/1</text>
<text text-anchor="start" x="1654" y="-134.8" font-family="monospace" font-size="9.00"> &#160;&#160;&#160;&#160;&#160;interlace&#45;mode: progressive</text>
<text text-anchor="start" x="1654" y="-124.8" font-family="monospace" font-size="9.00"> &#160;&#160;&#160;&#160;&#160;&#160;&#160;&#160;&#160;&#160;framerate: 30000/1001</text>
<text text-anchor="start" x="1654" y="-114.8" font-family="monospace" font-size="9.00"> &#160;&#160;&#160;&#160;&#160;&#160;&#160;&#160;&#160;&#160;&#160;&#160;&#160;format: UYVY</text>
<text text-anchor="start" x="1654" y="-104.8" font-family="monospace" font-size="9.00"> &#160;&#160;&#160;&#160;&#160;&#160;&#160;&#160;colorimetry: bt709</text>
<text text-anchor="start" x="1654" y="-94.8" font-family="monospace" font-size="9.00"> &#160;&#160;&#160;&#160;&#160;&#160;&#160;&#160;chroma&#45;site: mpeg2</text>
</g>
<!-- videorate0_0x55f120cdbee0_sink_0x55f120cdc2e0 -->
<g id="node13" class="node">
<title>videorate0_0x55f120cdbee0_sink_0x55f120cdc2e0</title>
<polygon fill="#aaaaff" stroke="black" points="1114,-102 1060,-102 1060,-82 1114,-82 1114,-102"/>
<text text-anchor="middle" x="1087" y="-94.8" font-family="sans" font-size="9.00">sink</text>
<text text-anchor="middle" x="1087" y="-84.8" font-family="sans" font-size="9.00">[&gt;][bfb]</text>
</g>
<!-- videorate0_0x55f120cdbee0_src_0x55f120cdc5c0 -->
<g id="node14" class="node">
<title>videorate0_0x55f120cdbee0_src_0x55f120cdc5c0</title>
<polygon fill="#ffaaaa" stroke="black" points="1267,-102 1213,-102 1213,-82 1267,-82 1267,-102"/>
<text text-anchor="middle" x="1240" y="-94.8" font-family="sans" font-size="9.00">src</text>
<text text-anchor="middle" x="1240" y="-84.8" font-family="sans" font-size="9.00">[&gt;][bfb]</text>
</g>
<!-- videorate0_0x55f120cdbee0_sink_0x55f120cdc2e0&#45;&gt;videorate0_0x55f120cdbee0_src_0x55f120cdc5c0 -->
<!-- videorate0_0x55f120cdbee0_src_0x55f120cdc5c0&#45;&gt;queue0_0x55f120ce0d50_sink_0x55f120ce11e0 -->
<g id="edge11" class="edge">
<title>videorate0_0x55f120cdbee0_src_0x55f120cdc5c0&#45;&gt;queue0_0x55f120ce0d50_sink_0x55f120ce11e0</title>
<path fill="none" stroke="black" d="M1267.27,-92C1316.47,-92 1422.59,-92 1478.62,-92"/>
<polygon fill="black" stroke="black" points="1478.81,-95.5 1488.81,-92 1478.81,-88.5 1478.81,-95.5"/>
<text text-anchor="start" x="1291" y="-174.8" font-family="monospace" font-size="9.00">video/x&#45;raw</text>
<text text-anchor="start" x="1291" y="-164.8" font-family="monospace" font-size="9.00"> &#160;&#160;&#160;&#160;&#160;&#160;&#160;&#160;&#160;&#160;&#160;&#160;&#160;&#160;width: 1920</text>
<text text-anchor="start" x="1291" y="-154.8" font-family="monospace" font-size="9.00"> &#160;&#160;&#160;&#160;&#160;&#160;&#160;&#160;&#160;&#160;&#160;&#160;&#160;height: 1080</text>
<text text-anchor="start" x="1291" y="-144.8" font-family="monospace" font-size="9.00"> &#160;pixel&#45;aspect&#45;ratio: 1/1</text>
<text text-anchor="start" x="1291" y="-134.8" font-family="monospace" font-size="9.00"> &#160;&#160;&#160;&#160;&#160;interlace&#45;mode: progressive</text>
<text text-anchor="start" x="1291" y="-124.8" font-family="monospace" font-size="9.00"> &#160;&#160;&#160;&#160;&#160;&#160;&#160;&#160;&#160;&#160;framerate: 30000/1001</text>
<text text-anchor="start" x="1291" y="-114.8" font-family="monospace" font-size="9.00"> &#160;&#160;&#160;&#160;&#160;&#160;&#160;&#160;&#160;&#160;&#160;&#160;&#160;format: UYVY</text>
<text text-anchor="start" x="1291" y="-104.8" font-family="monospace" font-size="9.00"> &#160;&#160;&#160;&#160;&#160;&#160;&#160;&#160;colorimetry: bt709</text>
<text text-anchor="start" x="1291" y="-94.8" font-family="monospace" font-size="9.00"> &#160;&#160;&#160;&#160;&#160;&#160;&#160;&#160;chroma&#45;site: mpeg2</text>
</g>
<!-- deinterlace0_0x55f120cd5470_sink_0x55f120cd71a0 -->
<g id="node15" class="node">
<title>deinterlace0_0x55f120cd5470_sink_0x55f120cd71a0</title>
<polygon fill="#aaaaff" stroke="black" points="656,-102 602,-102 602,-82 656,-82 656,-102"/>
<text text-anchor="middle" x="629" y="-94.8" font-family="sans" font-size="9.00">sink</text>
<text text-anchor="middle" x="629" y="-84.8" font-family="sans" font-size="9.00">[&gt;][bfb]</text>
</g>
<!-- deinterlace0_0x55f120cd5470_src_0x55f120aa82b0 -->
<g id="node16" class="node">
<title>deinterlace0_0x55f120cd5470_src_0x55f120aa82b0</title>
<polygon fill="#ffaaaa" stroke="black" points="743,-102 689,-102 689,-82 743,-82 743,-102"/>
<text text-anchor="middle" x="716" y="-94.8" font-family="sans" font-size="9.00">src</text>
<text text-anchor="middle" x="716" y="-84.8" font-family="sans" font-size="9.00">[&gt;][bfb]</text>
</g>
<!-- deinterlace0_0x55f120cd5470_sink_0x55f120cd71a0&#45;&gt;deinterlace0_0x55f120cd5470_src_0x55f120aa82b0 -->
<!-- deinterlace0_0x55f120cd5470_src_0x55f120aa82b0&#45;&gt;videorate0_0x55f120cdbee0_sink_0x55f120cdc2e0 -->
<g id="edge13" class="edge">
<title>deinterlace0_0x55f120cd5470_src_0x55f120aa82b0&#45;&gt;videorate0_0x55f120cdbee0_sink_0x55f120cdc2e0</title>
<path fill="none" stroke="black" d="M743.24,-92C807.9,-92 975,-92 1049.37,-92"/>
<polygon fill="black" stroke="black" points="1049.65,-95.5 1059.65,-92 1049.65,-88.5 1049.65,-95.5"/>
<text text-anchor="start" x="785.5" y="-174.8" font-family="monospace" font-size="9.00">video/x&#45;raw</text>
<text text-anchor="start" x="785.5" y="-164.8" font-family="monospace" font-size="9.00"> &#160;&#160;&#160;&#160;&#160;&#160;&#160;&#160;&#160;&#160;&#160;&#160;&#160;&#160;width: 1920</text>
<text text-anchor="start" x="785.5" y="-154.8" font-family="monospace" font-size="9.00"> &#160;&#160;&#160;&#160;&#160;&#160;&#160;&#160;&#160;&#160;&#160;&#160;&#160;height: 1080</text>
<text text-anchor="start" x="785.5" y="-144.8" font-family="monospace" font-size="9.00"> &#160;pixel&#45;aspect&#45;ratio: 1/1</text>
<text text-anchor="start" x="785.5" y="-134.8" font-family="monospace" font-size="9.00"> &#160;&#160;&#160;&#160;&#160;interlace&#45;mode: progressive</text>
<text text-anchor="start" x="785.5" y="-124.8" font-family="monospace" font-size="9.00"> &#160;&#160;&#160;&#160;&#160;&#160;&#160;&#160;&#160;&#160;framerate: 60000/1001</text>
<text text-anchor="start" x="785.5" y="-114.8" font-family="monospace" font-size="9.00"> &#160;&#160;&#160;&#160;&#160;&#160;&#160;&#160;&#160;&#160;&#160;&#160;&#160;format: UYVY</text>
<text text-anchor="start" x="785.5" y="-104.8" font-family="monospace" font-size="9.00"> &#160;&#160;&#160;&#160;&#160;&#160;&#160;&#160;colorimetry: bt709</text>
<text text-anchor="start" x="785.5" y="-94.8" font-family="monospace" font-size="9.00"> &#160;&#160;&#160;&#160;&#160;&#160;&#160;&#160;chroma&#45;site: mpeg2</text>
</g>
<!-- decklinkvideosrc0_0x55f120cccbd0_src_0x55f120ccd090 -->
<g id="node17" class="node">
<title>decklinkvideosrc0_0x55f120cccbd0_src_0x55f120ccd090</title>
<polygon fill="#ffaaaa" stroke="black" points="206.5,-102 152.5,-102 152.5,-82 206.5,-82 206.5,-102"/>
<text text-anchor="middle" x="179.5" y="-94.8" font-family="sans" font-size="9.00">src</text>
<text text-anchor="middle" x="179.5" y="-84.8" font-family="sans" font-size="9.00">[&gt;][bfb][T]</text>
</g>
<!-- decklinkvideosrc0_0x55f120cccbd0_src_0x55f120ccd090&#45;&gt;deinterlace0_0x55f120cd5470_sink_0x55f120cd71a0 -->
<g id="edge14" class="edge">
<title>decklinkvideosrc0_0x55f120cccbd0_src_0x55f120ccd090&#45;&gt;deinterlace0_0x55f120cd5470_sink_0x55f120cd71a0</title>
<path fill="none" stroke="black" d="M206.82,-92C283.08,-92 504.27,-92 591.76,-92"/>
<polygon fill="black" stroke="black" points="591.99,-95.5 601.99,-92 591.99,-88.5 591.99,-95.5"/>
<text text-anchor="start" x="375" y="-184.8" font-family="monospace" font-size="9.00">video/x&#45;raw</text>
<text text-anchor="start" x="375" y="-174.8" font-family="monospace" font-size="9.00"> &#160;&#160;&#160;&#160;&#160;&#160;&#160;&#160;&#160;&#160;&#160;&#160;&#160;&#160;width: 1920</text>
<text text-anchor="start" x="375" y="-164.8" font-family="monospace" font-size="9.00"> &#160;&#160;&#160;&#160;&#160;&#160;&#160;&#160;&#160;&#160;&#160;&#160;&#160;height: 1080</text>
<text text-anchor="start" x="375" y="-154.8" font-family="monospace" font-size="9.00"> &#160;pixel&#45;aspect&#45;ratio: 1/1</text>
<text text-anchor="start" x="375" y="-144.8" font-family="monospace" font-size="9.00"> &#160;&#160;&#160;&#160;&#160;interlace&#45;mode: interleaved</text>
<text text-anchor="start" x="375" y="-134.8" font-family="monospace" font-size="9.00"> &#160;&#160;&#160;&#160;&#160;&#160;&#160;&#160;&#160;&#160;framerate: 30000/1001</text>
<text text-anchor="start" x="375" y="-124.8" font-family="monospace" font-size="9.00"> &#160;&#160;&#160;&#160;&#160;&#160;&#160;&#160;field&#45;order: top&#45;field&#45;first</text>
<text text-anchor="start" x="375" y="-114.8" font-family="monospace" font-size="9.00"> &#160;&#160;&#160;&#160;&#160;&#160;&#160;&#160;&#160;&#160;&#160;&#160;&#160;format: UYVY</text>
<text text-anchor="start" x="375" y="-104.8" font-family="monospace" font-size="9.00"> &#160;&#160;&#160;&#160;&#160;&#160;&#160;&#160;colorimetry: bt709</text>
<text text-anchor="start" x="375" y="-94.8" font-family="monospace" font-size="9.00"> &#160;&#160;&#160;&#160;&#160;&#160;&#160;&#160;chroma&#45;site: mpeg2</text>
</g>
</g>
</svg>
